<svg width="25" height="24" viewBox="0 0 25 24" fill="none" xmlns="http://www.w3.org/2000/svg">
<path d="M8.5 7.25C8.08579 7.25 7.75 7.58579 7.75 8C7.75 8.41421 8.08579 8.75 8.5 8.75H11.5C11.9142 8.75 12.25 8.41421 12.25 8C12.25 7.58579 11.9142 7.25 11.5 7.25H8.5Z" fill="white"/>
<path d="M8.5 11.25C8.08579 11.25 7.75 11.5858 7.75 12C7.75 12.4142 8.08579 12.75 8.5 12.75H16.5C16.9142 12.75 17.25 12.4142 17.25 12C17.25 11.5858 16.9142 11.25 16.5 11.25H8.5Z" fill="white"/>
<path d="M8.5 15.25C8.08579 15.25 7.75 15.5858 7.75 16C7.75 16.4142 8.08579 16.75 8.5 16.75H16.5C16.9142 16.75 17.25 16.4142 17.25 16C17.25 15.5858 16.9142 15.25 16.5 15.25H8.5Z" fill="white"/>
<path fill-rule="evenodd" clip-rule="evenodd" d="M16.9635 1.37373C15.8214 1.24999 14.3818 1.24999 12.5452 1.25H12.4548C10.6182 1.24999 9.17861 1.24999 8.03648 1.37373C6.87094 1.50001 5.92656 1.76232 5.12024 2.34815C4.63209 2.70281 4.20281 3.13209 3.84815 3.62024C3.26232 4.42656 3.00001 5.37094 2.87373 6.53648C2.74999 7.67861 2.74999 9.11821 2.75 10.9548V13.0452C2.74999 14.8818 2.74999 16.3214 2.87373 17.4635C3.00001 18.6291 3.26232 19.5734 3.84815 20.3798C4.20281 20.8679 4.63209 21.2972 5.12024 21.6518C5.92656 22.2377 6.87094 22.5 8.03648 22.6263C9.17859 22.75 10.6182 22.75 12.4547 22.75H12.5453C14.3818 22.75 15.8214 22.75 16.9635 22.6263C18.1291 22.5 19.0734 22.2377 19.8798 21.6518C20.3679 21.2972 20.7972 20.8679 21.1518 20.3798C21.7377 19.5734 22 18.6291 22.1263 17.4635C22.25 16.3214 22.25 14.8818 22.25 13.0453V10.9547C22.25 9.11824 22.25 7.67859 22.1263 6.53648C22 5.37094 21.7377 4.42656 21.1518 3.62024C20.7972 3.13209 20.3679 2.70281 19.8798 2.34815C19.0734 1.76232 18.1291 1.50001 16.9635 1.37373ZM6.00191 3.56168C6.50992 3.19259 7.16013 2.97745 8.19804 2.865C9.24999 2.75103 10.6084 2.75 12.5 2.75C14.3916 2.75 15.75 2.75103 16.802 2.865C17.8399 2.97745 18.4901 3.19259 18.9981 3.56168C19.3589 3.82382 19.6762 4.14111 19.9383 4.50191C20.3074 5.00992 20.5225 5.66013 20.635 6.69804C20.749 7.74999 20.75 9.10843 20.75 11V13C20.75 14.8916 20.749 16.25 20.635 17.302C20.5225 18.3399 20.3074 18.9901 19.9383 19.4981C19.6762 19.8589 19.3589 20.1762 18.9981 20.4383C18.4901 20.8074 17.8399 21.0225 16.802 21.135C15.75 21.249 14.3916 21.25 12.5 21.25C10.6084 21.25 9.24999 21.249 8.19804 21.135C7.16013 21.0225 6.50992 20.8074 6.00191 20.4383C5.64111 20.1762 5.32382 19.8589 5.06168 19.4981C4.69259 18.9901 4.47745 18.3399 4.365 17.302C4.25103 16.25 4.25 14.8916 4.25 13V11C4.25 9.10843 4.25103 7.74999 4.365 6.69804C4.47745 5.66013 4.69259 5.00992 5.06168 4.50191C5.32382 4.14111 5.64111 3.82382 6.00191 3.56168Z" fill="white"/>
</svg>
