<svg width="34" height="34" viewBox="0 0 34 34" fill="none" xmlns="http://www.w3.org/2000/svg">
<g clip-path="url(#clip0_265_33530)">
<path d="M16.672 19.9863L19.6456 17.8412C21.2879 16.6564 21.6589 14.3646 20.4741 12.7223C19.2894 11.08 16.9976 10.7091 15.3553 11.8938L7.92112 17.2568C6.27881 18.4415 5.90788 20.7333 7.09263 22.3756C7.63667 23.1298 8.41415 23.6158 9.25499 23.8063C9.771 23.9231 10.3109 23.9287 10.8353 23.8165M17.5004 14.8675L14.5268 17.0127C12.8845 18.1974 12.5136 20.4892 13.6983 22.1315C14.883 23.7738 17.1748 24.1447 18.8171 22.96L26.2513 17.5971C27.8936 16.4123 28.2645 14.1205 27.0798 12.4782C26.5357 11.7241 25.7583 11.238 24.9174 11.0476C24.4014 10.9307 23.8615 10.9252 23.3371 11.0373" stroke="#475569" stroke-width="1.5" stroke-linecap="round"/>
</g>
<defs>
<clipPath id="clip0_265_33530">
<rect width="24" height="24" fill="white" transform="translate(15.2832 0.116516) rotate(39.1936)"/>
</clipPath>
</defs>
</svg>
