<svg width="20" height="21" viewBox="0 0 20 21" fill="none" xmlns="http://www.w3.org/2000/svg">
<g clip-path="url(#clip0_436_33980)">
<path d="M8.90792 5.48661L8.19248 5.26158L8.90792 5.48661ZM7.14159 8.45086L7.59179 7.85101L7.14159 8.45086ZM7.55857 9.77651L8.27401 10.0015L7.55857 9.77651ZM9.32489 11.1022L8.8747 10.5023L9.32489 11.1022ZM10.6743 11.1022L11.1244 10.5023L10.6743 11.1022ZM12.4406 9.77651L11.7251 10.0015L12.4406 9.77651ZM12.8576 8.45086L12.4074 7.85101L12.8576 8.45086ZM11.0912 5.48661L11.8067 5.26158L11.0912 5.48661ZM8.22697 15.3598L7.57745 14.9848H7.57745L8.22697 15.3598ZM6.76317 17.8952L7.41269 18.2702H7.41269L6.76317 17.8952ZM1.52492 14.8709L0.875403 14.4959L1.52492 14.8709ZM2.98872 12.3355L3.63824 12.7105L2.98872 12.3355ZM5.19367 17.7608L4.48399 18.0034H4.48399L5.19367 17.7608ZM4.99047 17.1663L5.70015 16.9237L5.70015 16.9237L4.99047 17.1663ZM3.04246 16.0417L2.89772 15.3058H2.89772L3.04246 16.0417ZM2.42607 16.1629L2.57081 16.8988H2.57081L2.42607 16.1629ZM4.36794 15.9952L4.74294 15.3457H4.74294L4.36794 15.9952ZM1.06433 16.1717L0.449171 16.6007L1.06433 16.1717ZM8.64964 14.6106L8.05046 14.1595L8.01446 14.2073L7.9865 14.2602L8.64964 14.6106ZM11.5402 15.3598L12.1898 14.9848L11.5402 15.3598ZM13.004 17.8952L13.6536 17.5202L13.004 17.8952ZM18.2423 14.8709L18.8918 14.4959L18.2423 14.8709ZM16.7785 12.3355L16.129 12.7105L16.7785 12.3355ZM14.5735 17.7608L15.2832 18.0034L14.5735 17.7608ZM14.7767 17.1663L14.0671 16.9237V16.9237L14.7767 17.1663ZM16.7247 16.0417L16.8695 15.3058H16.8695L16.7247 16.0417ZM17.3411 16.1629L17.1964 16.8988H17.1964L17.3411 16.1629ZM18.7029 16.1717L19.318 16.6007L18.7029 16.1717ZM11.114 14.6037H10.364V14.7893L10.4504 14.9534L11.114 14.6037ZM4.02246 10.9567L3.35044 11.2897L4.02246 10.9567ZM8.70195 14.5411L8.84711 13.8053L8.70195 14.5411ZM11.114 14.5746L10.9895 13.835L11.114 14.5746ZM15.9267 11.0556L15.2603 10.7114L15.9267 11.0556ZM4.08291 8.00065C4.08291 4.73297 6.73189 2.08398 9.99957 2.08398V0.583984C5.90346 0.583984 2.58291 3.90454 2.58291 8.00065H4.08291ZM9.99957 2.08398C13.2673 2.08398 15.9162 4.73297 15.9162 8.00065H17.4162C17.4162 3.90454 14.0957 0.583984 9.99957 0.583984V2.08398ZM7.81627 7.05591C8.65437 7.05591 9.37548 6.49974 9.62336 5.71165L8.19248 5.26158C8.13304 5.45055 7.97272 5.55591 7.81627 5.55591V7.05591ZM7.59179 7.85101C7.43041 7.72989 7.37994 7.54138 7.44006 7.35025C7.49964 7.16082 7.6374 7.05591 7.81627 7.05591V5.55591C5.9296 5.55591 5.25898 7.97567 6.6914 9.05071L7.59179 7.85101ZM8.27401 10.0015C8.52075 9.2171 8.25467 8.34851 7.59179 7.85101L6.6914 9.05071C6.83311 9.15707 6.90371 9.35885 6.84312 9.55147L8.27401 10.0015ZM8.8747 10.5023C8.72207 10.6169 8.56277 10.6052 8.42574 10.5023C8.28519 10.3968 8.20593 10.218 8.27401 10.0015L6.84312 9.55147C6.5676 10.4274 6.92172 11.249 7.52534 11.702C8.13248 12.1577 9.02815 12.2626 9.77509 11.702L8.8747 10.5023ZM11.1244 10.5023C10.4554 10.0002 9.54375 10.0002 8.8747 10.5023L9.77509 11.702C9.91064 11.6003 10.0885 11.6003 10.2241 11.702L11.1244 10.5023ZM11.7251 10.0015C11.7932 10.218 11.714 10.3968 11.5734 10.5023C11.4364 10.6052 11.2771 10.6169 11.1244 10.5023L10.2241 11.702C10.971 12.2626 11.8667 12.1577 12.4738 11.702C13.0774 11.249 13.4315 10.4274 13.156 9.55147L11.7251 10.0015ZM12.4074 7.85101C11.7445 8.34851 11.4784 9.21709 11.7251 10.0015L13.156 9.55147C13.0954 9.35885 13.166 9.15707 13.3077 9.05071L12.4074 7.85101ZM12.1829 7.05591C12.3617 7.05591 12.4995 7.16082 12.5591 7.35025C12.6192 7.54138 12.5687 7.72989 12.4074 7.85101L13.3077 9.05071C14.7402 7.97567 14.0696 5.55591 12.1829 5.55591V7.05591ZM10.3758 5.71165C10.6237 6.49974 11.3448 7.05591 12.1829 7.05591V5.55591C12.0264 5.55591 11.8661 5.45055 11.8067 5.26158L10.3758 5.71165ZM11.8067 5.26158C11.2429 3.46923 8.75625 3.46923 8.19248 5.26158L9.62336 5.71165C9.74681 5.31921 10.2523 5.31921 10.3758 5.71165L11.8067 5.26158ZM7.57745 14.9848L6.11365 17.5202L7.41269 18.2702L8.87649 15.7348L7.57745 14.9848ZM2.17444 15.2459L3.63824 12.7105L2.3392 11.9605L0.875403 14.4959L2.17444 15.2459ZM5.90335 17.5182L5.70015 16.9237L4.28079 17.4089L4.48399 18.0034L5.90335 17.5182ZM2.89772 15.3058L2.28132 15.427L2.57081 16.8988L3.18721 16.7776L2.89772 15.3058ZM5.70015 16.9237C5.59124 16.6052 5.48814 16.2992 5.37031 16.0583C5.24336 15.7988 5.06022 15.5289 4.74294 15.3457L3.99294 16.6447C3.95249 16.6214 3.96538 16.5999 4.02287 16.7174C4.08948 16.8536 4.15922 17.0533 4.28079 17.4089L5.70015 16.9237ZM3.18721 16.7776C3.55596 16.705 3.76379 16.6656 3.91502 16.6552C4.04556 16.6462 4.0334 16.6681 3.99294 16.6447L4.74294 15.3457C4.42567 15.1625 4.10032 15.1389 3.81211 15.1587C3.54457 15.1771 3.22807 15.2408 2.89772 15.3058L3.18721 16.7776ZM0.875403 14.4959C0.6814 14.8319 0.492451 15.1554 0.384347 15.4242C0.283291 15.6754 0.137398 16.1537 0.449171 16.6007L1.67948 15.7426C1.7473 15.8399 1.76329 15.9432 1.76042 16.0068C1.75844 16.0505 1.74874 16.0517 1.77599 15.984C1.80146 15.9206 1.84479 15.8316 1.91509 15.7025C1.98461 15.5748 2.06976 15.4272 2.17444 15.2459L0.875403 14.4959ZM2.28132 15.427C2.07798 15.467 1.91289 15.4994 1.7715 15.5235C1.62842 15.5478 1.53251 15.5595 1.46683 15.5628C1.39627 15.5663 1.40467 15.5573 1.45086 15.5714C1.51739 15.5918 1.61118 15.6447 1.67948 15.7426L0.449171 16.6007C0.765093 17.0537 1.26973 17.0744 1.54131 17.0609C1.8294 17.0466 2.19505 16.9727 2.57081 16.8988L2.28132 15.427ZM6.11365 17.5202C6.00897 17.7015 5.92374 17.849 5.84791 17.9731C5.77122 18.0985 5.71578 18.1806 5.67367 18.2343C5.62863 18.2918 5.62482 18.2828 5.66171 18.2592C5.71535 18.2249 5.81282 18.1871 5.93093 18.1972L5.80295 19.6917C6.34596 19.7382 6.68721 19.3727 6.85426 19.1596C7.03296 18.9316 7.21869 18.6062 7.41269 18.2702L6.11365 17.5202ZM4.48399 18.0034C4.60787 18.3658 4.72669 18.7194 4.85833 18.976C4.98243 19.218 5.25272 19.6446 5.80295 19.6917L5.93093 18.1972C6.04988 18.2074 6.1426 18.2622 6.1935 18.3096C6.22884 18.3425 6.22524 18.3543 6.193 18.2914C6.16299 18.2329 6.12516 18.144 6.07471 18.0079C6.02486 17.8735 5.97039 17.7143 5.90335 17.5182L4.48399 18.0034ZM3.63824 12.7105C3.99727 12.0886 4.15347 11.8254 4.29773 11.6611L3.17052 10.6715C2.90379 10.9753 2.66191 11.4015 2.3392 11.9605L3.63824 12.7105ZM8.87649 15.7348C9.0511 15.4324 9.19816 15.1779 9.31278 14.9609L7.9865 14.2602C7.88801 14.4467 7.75729 14.6733 7.57745 14.9848L8.87649 15.7348ZM10.8907 15.7348L12.3545 18.2702L13.6536 17.5202L12.1898 14.9848L10.8907 15.7348ZM18.8918 14.4959L17.428 11.9605L16.129 12.7105L17.5928 15.2459L18.8918 14.4959ZM15.2832 18.0034L15.4864 17.4089L14.0671 16.9237L13.8639 17.5182L15.2832 18.0034ZM16.58 16.7776L17.1964 16.8988L17.4859 15.427L16.8695 15.3058L16.58 16.7776ZM15.4864 17.4089C15.608 17.0533 15.6777 16.8536 15.7443 16.7174C15.8018 16.5999 15.8147 16.6214 15.7743 16.6447L15.0243 15.3457C14.707 15.5289 14.5239 15.7988 14.3969 16.0583C14.2791 16.2992 14.176 16.6052 14.0671 16.9237L15.4864 17.4089ZM16.8695 15.3058C16.5391 15.2408 16.2226 15.1771 15.9551 15.1587C15.6669 15.1389 15.3415 15.1625 15.0243 15.3457L15.7743 16.6447C15.7338 16.6681 15.7217 16.6462 15.8522 16.6552C16.0034 16.6656 16.2113 16.705 16.58 16.7776L16.8695 15.3058ZM17.5928 15.2459C17.6975 15.4272 17.7826 15.5748 17.8521 15.7025C17.9224 15.8316 17.9657 15.9206 17.9912 15.984C18.0185 16.0517 18.0088 16.0505 18.0068 16.0068C18.0039 15.9432 18.0199 15.8399 18.0877 15.7426L19.318 16.6007C19.6298 16.1537 19.4839 15.6754 19.3829 15.4242C19.2748 15.1554 19.0858 14.8319 18.8918 14.4959L17.5928 15.2459ZM17.1964 16.8988C17.5722 16.9727 17.9378 17.0466 18.2259 17.0609C18.4975 17.0744 19.0021 17.0537 19.318 16.6007L18.0877 15.7426C18.156 15.6447 18.2498 15.5918 18.3164 15.5714C18.3625 15.5573 18.3709 15.5663 18.3004 15.5628C18.2347 15.5595 18.1388 15.5478 17.9957 15.5235C17.8543 15.4994 17.6892 15.467 17.4859 15.427L17.1964 16.8988ZM12.3545 18.2702C12.5485 18.6062 12.7343 18.9316 12.913 19.1596C13.08 19.3727 13.4213 19.7382 13.9643 19.6917L13.8363 18.1972C13.9544 18.1871 14.0519 18.2249 14.1055 18.2592C14.1424 18.2828 14.1386 18.2918 14.0935 18.2343C14.0514 18.1806 13.996 18.0985 13.9193 17.9731C13.8435 17.849 13.7582 17.7015 13.6536 17.5202L12.3545 18.2702ZM13.8639 17.5182C13.7968 17.7143 13.7424 17.8735 13.6925 18.0079C13.6421 18.144 13.6042 18.2329 13.5742 18.2914C13.542 18.3543 13.5384 18.3425 13.5737 18.3096C13.6246 18.2622 13.7173 18.2074 13.8363 18.1972L13.9643 19.6917C14.5145 19.6446 14.7848 19.218 14.9089 18.976C15.0405 18.7194 15.1593 18.3658 15.2832 18.0034L13.8639 17.5182ZM12.1898 14.9848C12.0078 14.6697 11.8762 14.4415 11.7775 14.2541L10.4504 14.9534C10.5658 15.1722 10.7142 15.429 10.8907 15.7348L12.1898 14.9848ZM4.69449 10.6237C4.30321 9.83408 4.08291 8.94416 4.08291 8.00065H2.58291C2.58291 9.18031 2.85887 10.2977 3.35044 11.2897L4.69449 10.6237ZM9.99957 13.9173C9.60455 13.9173 9.21928 13.8787 8.84711 13.8053L8.55679 15.2769C9.02407 15.3691 9.50656 15.4173 9.99957 15.4173V13.9173ZM8.84711 13.8053C7.02345 13.4455 5.49818 12.2457 4.69449 10.6237L3.35044 11.2897C4.35663 13.3203 6.26596 14.825 8.55679 15.2769L8.84711 13.8053ZM9.24882 15.0617L9.30113 14.9922L8.10277 14.09L8.05046 14.1595L9.24882 15.0617ZM10.9895 13.835C10.6681 13.8891 10.3374 13.9173 9.99957 13.9173V15.4173C10.4212 15.4173 10.8351 15.3821 11.2384 15.3142L10.9895 13.835ZM11.864 14.6037V14.5746H10.364V14.6037H11.864ZM15.9162 8.00065C15.9162 8.97915 15.6793 9.90012 15.2603 10.7114L16.5931 11.3997C17.1194 10.3806 17.4162 9.22422 17.4162 8.00065H15.9162ZM15.2603 10.7114C14.421 12.3365 12.8515 13.5216 10.9895 13.835L11.2384 15.3142C13.5777 14.9205 15.5425 13.4338 16.5931 11.3997L15.2603 10.7114ZM17.428 11.9605C17.0561 11.3164 16.7897 10.839 16.4417 10.5103L15.4117 11.6008C15.56 11.7408 15.7029 11.9725 16.129 12.7105L17.428 11.9605ZM4.29773 11.6611C4.29214 11.6675 4.29127 11.6667 4.30054 11.6602C4.31022 11.6533 4.32739 11.6427 4.35575 11.6286L3.68918 10.2848C3.53448 10.3616 3.33843 10.4802 3.17052 10.6715L4.29773 11.6611Z" fill="#452667"/>
<path d="M8.90792 5.48661L8.19248 5.26158L8.90792 5.48661ZM7.14159 8.45086L7.59179 7.85101L7.14159 8.45086ZM7.55857 9.77651L8.27401 10.0015L7.55857 9.77651ZM9.32489 11.1022L8.8747 10.5023L9.32489 11.1022ZM10.6743 11.1022L11.1244 10.5023L10.6743 11.1022ZM12.4406 9.77651L11.7251 10.0015L12.4406 9.77651ZM12.8576 8.45086L12.4074 7.85101L12.8576 8.45086ZM11.0912 5.48661L11.8067 5.26158L11.0912 5.48661ZM8.22697 15.3598L7.57745 14.9848H7.57745L8.22697 15.3598ZM6.76317 17.8952L7.41269 18.2702H7.41269L6.76317 17.8952ZM1.52492 14.8709L0.875403 14.4959L1.52492 14.8709ZM2.98872 12.3355L3.63824 12.7105L2.98872 12.3355ZM5.19367 17.7608L4.48399 18.0034H4.48399L5.19367 17.7608ZM4.99047 17.1663L5.70015 16.9237L5.70015 16.9237L4.99047 17.1663ZM3.04246 16.0417L2.89772 15.3058H2.89772L3.04246 16.0417ZM2.42607 16.1629L2.57081 16.8988H2.57081L2.42607 16.1629ZM4.36794 15.9952L4.74294 15.3457H4.74294L4.36794 15.9952ZM1.06433 16.1717L0.449171 16.6007L1.06433 16.1717ZM8.64964 14.6106L8.05046 14.1595L8.01446 14.2073L7.9865 14.2602L8.64964 14.6106ZM11.5402 15.3598L12.1898 14.9848L11.5402 15.3598ZM13.004 17.8952L13.6536 17.5202L13.004 17.8952ZM18.2423 14.8709L18.8918 14.4959L18.2423 14.8709ZM16.7785 12.3355L16.129 12.7105L16.7785 12.3355ZM14.5735 17.7608L15.2832 18.0034L14.5735 17.7608ZM14.7767 17.1663L14.0671 16.9237V16.9237L14.7767 17.1663ZM16.7247 16.0417L16.8695 15.3058H16.8695L16.7247 16.0417ZM17.3411 16.1629L17.1964 16.8988H17.1964L17.3411 16.1629ZM18.7029 16.1717L19.318 16.6007L18.7029 16.1717ZM11.114 14.6037H10.364V14.7893L10.4504 14.9534L11.114 14.6037ZM4.02246 10.9567L3.35044 11.2897L4.02246 10.9567ZM8.70195 14.5411L8.84711 13.8053L8.70195 14.5411ZM11.114 14.5746L10.9895 13.835L11.114 14.5746ZM15.9267 11.0556L15.2603 10.7114L15.9267 11.0556ZM4.08291 8.00065C4.08291 4.73297 6.73189 2.08398 9.99957 2.08398V0.583984C5.90346 0.583984 2.58291 3.90454 2.58291 8.00065H4.08291ZM9.99957 2.08398C13.2673 2.08398 15.9162 4.73297 15.9162 8.00065H17.4162C17.4162 3.90454 14.0957 0.583984 9.99957 0.583984V2.08398ZM7.81627 7.05591C8.65437 7.05591 9.37548 6.49974 9.62336 5.71165L8.19248 5.26158C8.13304 5.45055 7.97272 5.55591 7.81627 5.55591V7.05591ZM7.59179 7.85101C7.43041 7.72989 7.37994 7.54138 7.44006 7.35025C7.49964 7.16082 7.6374 7.05591 7.81627 7.05591V5.55591C5.9296 5.55591 5.25898 7.97567 6.6914 9.05071L7.59179 7.85101ZM8.27401 10.0015C8.52075 9.2171 8.25467 8.34851 7.59179 7.85101L6.6914 9.05071C6.83311 9.15707 6.90371 9.35885 6.84312 9.55147L8.27401 10.0015ZM8.8747 10.5023C8.72207 10.6169 8.56277 10.6052 8.42574 10.5023C8.28519 10.3968 8.20593 10.218 8.27401 10.0015L6.84312 9.55147C6.5676 10.4274 6.92172 11.249 7.52534 11.702C8.13248 12.1577 9.02815 12.2626 9.77509 11.702L8.8747 10.5023ZM11.1244 10.5023C10.4554 10.0002 9.54375 10.0002 8.8747 10.5023L9.77509 11.702C9.91064 11.6003 10.0885 11.6003 10.2241 11.702L11.1244 10.5023ZM11.7251 10.0015C11.7932 10.218 11.714 10.3968 11.5734 10.5023C11.4364 10.6052 11.2771 10.6169 11.1244 10.5023L10.2241 11.702C10.971 12.2626 11.8667 12.1577 12.4738 11.702C13.0774 11.249 13.4315 10.4274 13.156 9.55147L11.7251 10.0015ZM12.4074 7.85101C11.7445 8.34851 11.4784 9.21709 11.7251 10.0015L13.156 9.55147C13.0954 9.35885 13.166 9.15707 13.3077 9.05071L12.4074 7.85101ZM12.1829 7.05591C12.3617 7.05591 12.4995 7.16082 12.5591 7.35025C12.6192 7.54138 12.5687 7.72989 12.4074 7.85101L13.3077 9.05071C14.7402 7.97567 14.0696 5.55591 12.1829 5.55591V7.05591ZM10.3758 5.71165C10.6237 6.49974 11.3448 7.05591 12.1829 7.05591V5.55591C12.0264 5.55591 11.8661 5.45055 11.8067 5.26158L10.3758 5.71165ZM11.8067 5.26158C11.2429 3.46923 8.75625 3.46923 8.19248 5.26158L9.62336 5.71165C9.74681 5.31921 10.2523 5.31921 10.3758 5.71165L11.8067 5.26158ZM7.57745 14.9848L6.11365 17.5202L7.41269 18.2702L8.87649 15.7348L7.57745 14.9848ZM2.17444 15.2459L3.63824 12.7105L2.3392 11.9605L0.875403 14.4959L2.17444 15.2459ZM5.90335 17.5182L5.70015 16.9237L4.28079 17.4089L4.48399 18.0034L5.90335 17.5182ZM2.89772 15.3058L2.28132 15.427L2.57081 16.8988L3.18721 16.7776L2.89772 15.3058ZM5.70015 16.9237C5.59124 16.6052 5.48814 16.2992 5.37031 16.0583C5.24336 15.7988 5.06022 15.5289 4.74294 15.3457L3.99294 16.6447C3.95249 16.6214 3.96538 16.5999 4.02287 16.7174C4.08948 16.8536 4.15922 17.0533 4.28079 17.4089L5.70015 16.9237ZM3.18721 16.7776C3.55596 16.705 3.76379 16.6656 3.91502 16.6552C4.04556 16.6462 4.0334 16.6681 3.99294 16.6447L4.74294 15.3457C4.42567 15.1625 4.10032 15.1389 3.81211 15.1587C3.54457 15.1771 3.22807 15.2408 2.89772 15.3058L3.18721 16.7776ZM0.875403 14.4959C0.6814 14.8319 0.492451 15.1554 0.384347 15.4242C0.283291 15.6754 0.137398 16.1537 0.449171 16.6007L1.67948 15.7426C1.7473 15.8399 1.76329 15.9432 1.76042 16.0068C1.75844 16.0505 1.74874 16.0517 1.77599 15.984C1.80146 15.9206 1.84479 15.8316 1.91509 15.7025C1.98461 15.5748 2.06976 15.4272 2.17444 15.2459L0.875403 14.4959ZM2.28132 15.427C2.07798 15.467 1.91289 15.4994 1.7715 15.5235C1.62842 15.5478 1.53251 15.5595 1.46683 15.5628C1.39627 15.5663 1.40467 15.5573 1.45086 15.5714C1.51739 15.5918 1.61118 15.6447 1.67948 15.7426L0.449171 16.6007C0.765093 17.0537 1.26973 17.0744 1.54131 17.0609C1.8294 17.0466 2.19505 16.9727 2.57081 16.8988L2.28132 15.427ZM6.11365 17.5202C6.00897 17.7015 5.92374 17.849 5.84791 17.9731C5.77122 18.0985 5.71578 18.1806 5.67367 18.2343C5.62863 18.2918 5.62482 18.2828 5.66171 18.2592C5.71535 18.2249 5.81282 18.1871 5.93093 18.1972L5.80295 19.6917C6.34596 19.7382 6.68721 19.3727 6.85426 19.1596C7.03296 18.9316 7.21869 18.6062 7.41269 18.2702L6.11365 17.5202ZM4.48399 18.0034C4.60787 18.3658 4.72669 18.7194 4.85833 18.976C4.98243 19.218 5.25272 19.6446 5.80295 19.6917L5.93093 18.1972C6.04988 18.2074 6.1426 18.2622 6.1935 18.3096C6.22884 18.3425 6.22524 18.3543 6.193 18.2914C6.16299 18.2329 6.12516 18.144 6.07471 18.0079C6.02486 17.8735 5.97039 17.7143 5.90335 17.5182L4.48399 18.0034ZM3.63824 12.7105C3.99727 12.0886 4.15347 11.8254 4.29773 11.6611L3.17052 10.6715C2.90379 10.9753 2.66191 11.4015 2.3392 11.9605L3.63824 12.7105ZM8.87649 15.7348C9.0511 15.4324 9.19816 15.1779 9.31278 14.9609L7.9865 14.2602C7.88801 14.4467 7.75729 14.6733 7.57745 14.9848L8.87649 15.7348ZM10.8907 15.7348L12.3545 18.2702L13.6536 17.5202L12.1898 14.9848L10.8907 15.7348ZM18.8918 14.4959L17.428 11.9605L16.129 12.7105L17.5928 15.2459L18.8918 14.4959ZM15.2832 18.0034L15.4864 17.4089L14.0671 16.9237L13.8639 17.5182L15.2832 18.0034ZM16.58 16.7776L17.1964 16.8988L17.4859 15.427L16.8695 15.3058L16.58 16.7776ZM15.4864 17.4089C15.608 17.0533 15.6777 16.8536 15.7443 16.7174C15.8018 16.5999 15.8147 16.6214 15.7743 16.6447L15.0243 15.3457C14.707 15.5289 14.5239 15.7988 14.3969 16.0583C14.2791 16.2992 14.176 16.6052 14.0671 16.9237L15.4864 17.4089ZM16.8695 15.3058C16.5391 15.2408 16.2226 15.1771 15.9551 15.1587C15.6669 15.1389 15.3415 15.1625 15.0243 15.3457L15.7743 16.6447C15.7338 16.6681 15.7217 16.6462 15.8522 16.6552C16.0034 16.6656 16.2113 16.705 16.58 16.7776L16.8695 15.3058ZM17.5928 15.2459C17.6975 15.4272 17.7826 15.5748 17.8521 15.7025C17.9224 15.8316 17.9657 15.9206 17.9912 15.984C18.0185 16.0517 18.0088 16.0505 18.0068 16.0068C18.0039 15.9432 18.0199 15.8399 18.0877 15.7426L19.318 16.6007C19.6298 16.1537 19.4839 15.6754 19.3829 15.4242C19.2748 15.1554 19.0858 14.8319 18.8918 14.4959L17.5928 15.2459ZM17.1964 16.8988C17.5722 16.9727 17.9378 17.0466 18.2259 17.0609C18.4975 17.0744 19.0021 17.0537 19.318 16.6007L18.0877 15.7426C18.156 15.6447 18.2498 15.5918 18.3164 15.5714C18.3625 15.5573 18.3709 15.5663 18.3004 15.5628C18.2347 15.5595 18.1388 15.5478 17.9957 15.5235C17.8543 15.4994 17.6892 15.467 17.4859 15.427L17.1964 16.8988ZM12.3545 18.2702C12.5485 18.6062 12.7343 18.9316 12.913 19.1596C13.08 19.3727 13.4213 19.7382 13.9643 19.6917L13.8363 18.1972C13.9544 18.1871 14.0519 18.2249 14.1055 18.2592C14.1424 18.2828 14.1386 18.2918 14.0935 18.2343C14.0514 18.1806 13.996 18.0985 13.9193 17.9731C13.8435 17.849 13.7582 17.7015 13.6536 17.5202L12.3545 18.2702ZM13.8639 17.5182C13.7968 17.7143 13.7424 17.8735 13.6925 18.0079C13.6421 18.144 13.6042 18.2329 13.5742 18.2914C13.542 18.3543 13.5384 18.3425 13.5737 18.3096C13.6246 18.2622 13.7173 18.2074 13.8363 18.1972L13.9643 19.6917C14.5145 19.6446 14.7848 19.218 14.9089 18.976C15.0405 18.7194 15.1593 18.3658 15.2832 18.0034L13.8639 17.5182ZM12.1898 14.9848C12.0078 14.6697 11.8762 14.4415 11.7775 14.2541L10.4504 14.9534C10.5658 15.1722 10.7142 15.429 10.8907 15.7348L12.1898 14.9848ZM4.69449 10.6237C4.30321 9.83408 4.08291 8.94416 4.08291 8.00065H2.58291C2.58291 9.18031 2.85887 10.2977 3.35044 11.2897L4.69449 10.6237ZM9.99957 13.9173C9.60455 13.9173 9.21928 13.8787 8.84711 13.8053L8.55679 15.2769C9.02407 15.3691 9.50656 15.4173 9.99957 15.4173V13.9173ZM8.84711 13.8053C7.02345 13.4455 5.49818 12.2457 4.69449 10.6237L3.35044 11.2897C4.35663 13.3203 6.26596 14.825 8.55679 15.2769L8.84711 13.8053ZM9.24882 15.0617L9.30113 14.9922L8.10277 14.09L8.05046 14.1595L9.24882 15.0617ZM10.9895 13.835C10.6681 13.8891 10.3374 13.9173 9.99957 13.9173V15.4173C10.4212 15.4173 10.8351 15.3821 11.2384 15.3142L10.9895 13.835ZM11.864 14.6037V14.5746H10.364V14.6037H11.864ZM15.9162 8.00065C15.9162 8.97915 15.6793 9.90012 15.2603 10.7114L16.5931 11.3997C17.1194 10.3806 17.4162 9.22422 17.4162 8.00065H15.9162ZM15.2603 10.7114C14.421 12.3365 12.8515 13.5216 10.9895 13.835L11.2384 15.3142C13.5777 14.9205 15.5425 13.4338 16.5931 11.3997L15.2603 10.7114ZM17.428 11.9605C17.0561 11.3164 16.7897 10.839 16.4417 10.5103L15.4117 11.6008C15.56 11.7408 15.7029 11.9725 16.129 12.7105L17.428 11.9605ZM4.29773 11.6611C4.29214 11.6675 4.29127 11.6667 4.30054 11.6602C4.31022 11.6533 4.32739 11.6427 4.35575 11.6286L3.68918 10.2848C3.53448 10.3616 3.33843 10.4802 3.17052 10.6715L4.29773 11.6611Z" fill="#F9B500"/>
</g>
<defs>
<clipPath id="clip0_436_33980">
<rect width="20" height="20" fill="white" transform="translate(0 0.5)"/>
</clipPath>
</defs>
</svg>
