<svg width="29" height="29" viewBox="0 0 29 29" fill="none" xmlns="http://www.w3.org/2000/svg">
<path d="M13.4503 1.95831C9.48882 1.95831 6.42377 5.43035 6.91513 9.36124L7.00771 10.1019C7.14319 11.1857 6.7473 12.2682 5.94463 13.0089C4.28133 14.5438 3.81922 16.9867 4.80698 19.0231L4.92756 19.2716C5.84825 21.1697 7.77244 22.375 9.88204 22.375H19.473C21.2927 22.375 22.9862 21.4454 23.9632 19.9102C25.3424 17.7432 24.9771 14.9004 23.0949 13.1524L23.0437 13.1049C22.1821 12.3047 21.7579 11.139 21.9037 9.97216L21.9791 9.36907C22.471 5.43402 19.4027 1.95831 15.437 1.95831H13.4503Z" fill="#6418C3"/>
<path d="M11.9143 24.475C11.6243 24.0884 11.0759 24.01 10.6893 24.3C10.3027 24.5899 10.2243 25.1384 10.5143 25.525L10.8643 25.9916C12.7893 28.5583 16.6393 28.5583 18.5643 25.9916L18.9143 25.525C19.2042 25.1384 19.1259 24.5899 18.7393 24.3C18.3527 24.01 17.8042 24.0884 17.5143 24.475L17.1643 24.9416C15.9393 26.575 13.4893 26.575 12.2643 24.9416L11.9143 24.475Z" fill="#6418C3"/>
</svg>
