<svg width="104" height="49" viewBox="0 0 104 49" fill="none" xmlns="http://www.w3.org/2000/svg">
<path d="M2.41113 46.6852L3.78185 45.7624C5.15257 44.8395 7.894 42.9939 10.6354 39.6086C13.3769 36.2233 16.1183 31.2984 18.8597 26.6527C21.6012 22.0069 24.3426 17.6403 27.084 16.0246C29.8255 14.4089 32.5669 15.5442 35.3083 19.1852C38.0498 22.8263 40.7912 28.9731 43.5326 29.5205C46.2741 30.068 49.0155 25.016 51.7569 25.4967C54.4984 25.9775 57.2398 31.9909 59.9812 31.1752C62.7227 30.3595 65.4641 22.7146 68.2055 18.4004C70.947 14.0862 73.6884 13.1028 76.4298 16.1521C79.1713 19.2013 81.9127 26.2833 84.6541 29.2255C87.3956 32.1677 90.137 30.9701 92.8784 25.8796C95.6199 20.7891 98.3613 11.8057 99.732 7.31399L101.103 2.82227" stroke="url(#paint0_linear_595_57719)" stroke-width="4.38629" stroke-linecap="round"/>
<defs>
<linearGradient id="paint0_linear_595_57719" x1="51.7569" y1="2.82227" x2="109.611" y2="2.82227" gradientUnits="userSpaceOnUse">
<stop stop-color="#6418C3"/>
<stop offset="1" stop-color="#AB18C3"/>
</linearGradient>
</defs>
</svg>
