<svg width="20" height="20" viewBox="0 0 20 20" fill="none" xmlns="http://www.w3.org/2000/svg">
<path d="M12.6871 6.83975L8.48065 11.056L6.86278 9.43813C6.77488 9.33549 6.66671 9.25212 6.54507 9.19327C6.42342 9.13442 6.29092 9.10134 6.15588 9.09613C6.02084 9.09091 5.88619 9.11367 5.76036 9.16296C5.63454 9.21226 5.52026 9.28703 5.4247 9.38258C5.32915 9.47814 5.25437 9.59242 5.20508 9.71824C5.15578 9.84407 5.13303 9.97873 5.13825 10.1138C5.14346 10.2488 5.17653 10.3813 5.23539 10.5029C5.29424 10.6246 5.37761 10.7328 5.48025 10.8207L7.78448 13.1347C7.8761 13.2256 7.98475 13.2975 8.10422 13.3463C8.22368 13.3951 8.3516 13.4198 8.48065 13.419C8.73788 13.418 8.98438 13.3158 9.16701 13.1347L14.0696 8.23209C14.1615 8.14094 14.2345 8.03249 14.2842 7.91301C14.334 7.79352 14.3597 7.66536 14.3597 7.53592C14.3597 7.40648 14.334 7.27832 14.2842 7.15883C14.2345 7.03935 14.1615 6.9309 14.0696 6.83975C13.8859 6.65713 13.6374 6.55462 13.3784 6.55462C13.1193 6.55462 12.8708 6.65713 12.6871 6.83975ZM10.0201 0.182007C8.08078 0.182007 6.18504 0.757073 4.57258 1.83448C2.96012 2.9119 1.70336 4.44326 0.961226 6.23493C0.219092 8.0266 0.0249162 9.9981 0.403253 11.9001C0.781589 13.8022 1.71545 15.5493 3.08673 16.9206C4.45801 18.2918 6.20514 19.2257 8.10716 19.604C10.0092 19.9824 11.9807 19.7882 13.7724 19.0461C15.564 18.3039 17.0954 17.0472 18.1728 15.4347C19.2502 13.8223 19.8253 11.9265 19.8253 9.98722C19.8253 8.69958 19.5717 7.42455 19.0789 6.23493C18.5861 5.04531 17.8639 3.96439 16.9534 3.05389C16.0429 2.14339 14.962 1.42114 13.7724 0.928385C12.5827 0.435626 11.3077 0.182007 10.0201 0.182007ZM10.0201 17.8314C8.46863 17.8314 6.95204 17.3713 5.66208 16.5094C4.37211 15.6475 3.3667 14.4224 2.77299 12.9891C2.17929 11.5557 2.02395 9.97852 2.32662 8.4569C2.62928 6.93528 3.37637 5.53758 4.4734 4.44056C5.57042 3.34353 6.96812 2.59644 8.48974 2.29377C10.0114 1.9911 11.5886 2.14645 13.0219 2.74015C14.4552 3.33386 15.6803 4.33927 16.5423 5.62923C17.4042 6.9192 17.8642 8.43579 17.8642 9.98722C17.8642 12.0676 17.0378 14.0628 15.5667 15.5339C14.0957 17.005 12.1005 17.8314 10.0201 17.8314Z" fill="#768396"/>
</svg>
