<svg width="25" height="24" viewBox="0 0 25 24" fill="none" xmlns="http://www.w3.org/2000/svg">
<path fill-rule="evenodd" clip-rule="evenodd" d="M8.64537 3.27077C8.34076 3.24999 7.96972 3.24999 7.52527 3.25H7.47475C7.03029 3.24999 6.65925 3.24999 6.35464 3.27077C6.03754 3.29241 5.73801 3.33905 5.44762 3.45933C4.77379 3.73844 4.23844 4.27379 3.95933 4.94762C3.83905 5.23801 3.79241 5.53754 3.77077 5.85464C3.74999 6.15925 3.74999 6.53028 3.75 6.97474V7.02525C3.74999 7.46971 3.74999 7.84076 3.77077 8.14537C3.79241 8.46247 3.83905 8.76199 3.95933 9.05238C4.23844 9.72621 4.77379 10.2616 5.44762 10.5407C5.73801 10.661 6.03754 10.7076 6.35464 10.7292C6.65925 10.75 7.03028 10.75 7.47474 10.75H7.52526C7.96972 10.75 8.34075 10.75 8.64537 10.7292C8.96247 10.7076 9.26199 10.661 9.55238 10.5407C10.2262 10.2616 10.7616 9.72621 11.0407 9.05238C11.161 8.76199 11.2076 8.46247 11.2292 8.14537C11.25 7.84075 11.25 7.46972 11.25 7.02526V6.97474C11.25 6.53028 11.25 6.15925 11.2292 5.85464C11.2076 5.53754 11.161 5.23801 11.0407 4.94762C10.7616 4.27379 10.2262 3.73844 9.55238 3.45933C9.26199 3.33905 8.96247 3.29241 8.64537 3.27077ZM6.02165 4.84515C6.0988 4.81319 6.21602 4.78372 6.45674 4.76729C6.70421 4.75041 7.0238 4.75 7.5 4.75C7.9762 4.75 8.2958 4.75041 8.54326 4.76729C8.78399 4.78372 8.9012 4.81319 8.97836 4.84515C9.28464 4.97202 9.52798 5.21536 9.65485 5.52165C9.68681 5.5988 9.71629 5.71602 9.73271 5.95674C9.74959 6.20421 9.75 6.5238 9.75 7C9.75 7.4762 9.74959 7.7958 9.73271 8.04326C9.71629 8.28399 9.68681 8.4012 9.65485 8.47836C9.52798 8.78464 9.28464 9.02798 8.97836 9.15485C8.9012 9.18681 8.78399 9.21629 8.54326 9.23271C8.2958 9.24959 7.9762 9.25 7.5 9.25C7.0238 9.25 6.70421 9.24959 6.45674 9.23271C6.21602 9.21629 6.0988 9.18681 6.02165 9.15485C5.71536 9.02798 5.47202 8.78464 5.34515 8.47836C5.31319 8.4012 5.28372 8.28399 5.26729 8.04326C5.25041 7.7958 5.25 7.4762 5.25 7C5.25 6.5238 5.25041 6.20421 5.26729 5.95674C5.28372 5.71602 5.31319 5.5988 5.34515 5.52165C5.47202 5.21536 5.71536 4.97202 6.02165 4.84515Z" fill="#706D8A"/>
<path fill-rule="evenodd" clip-rule="evenodd" d="M18.6454 3.27077C18.3408 3.24999 17.9697 3.24999 17.5253 3.25H17.4748C17.0303 3.24999 16.6592 3.24999 16.3546 3.27077C16.0375 3.29241 15.738 3.33905 15.4476 3.45933C14.7738 3.73844 14.2384 4.27379 13.9593 4.94762C13.839 5.23801 13.7924 5.53754 13.7708 5.85464C13.75 6.15925 13.75 6.53028 13.75 6.97474V7.02526C13.75 7.46972 13.75 7.84075 13.7708 8.14537C13.7924 8.46247 13.839 8.76199 13.9593 9.05238C14.2384 9.72621 14.7738 10.2616 15.4476 10.5407C15.738 10.661 16.0375 10.7076 16.3546 10.7292C16.6592 10.75 17.0303 10.75 17.4747 10.75H17.5253C17.9697 10.75 18.3408 10.75 18.6454 10.7292C18.9625 10.7076 19.262 10.661 19.5524 10.5407C20.2262 10.2616 20.7616 9.72621 21.0407 9.05238C21.161 8.76199 21.2076 8.46247 21.2292 8.14537C21.25 7.84075 21.25 7.46972 21.25 7.02526V6.97474C21.25 6.53028 21.25 6.15925 21.2292 5.85464C21.2076 5.53754 21.161 5.23801 21.0407 4.94762C20.7616 4.27379 20.2262 3.73844 19.5524 3.45933C19.262 3.33905 18.9625 3.29241 18.6454 3.27077ZM16.0216 4.84515C16.0988 4.81319 16.216 4.78372 16.4567 4.76729C16.7042 4.75041 17.0238 4.75 17.5 4.75C17.9762 4.75 18.2958 4.75041 18.5433 4.76729C18.784 4.78372 18.9012 4.81319 18.9784 4.84515C19.2846 4.97202 19.528 5.21536 19.6549 5.52165C19.6868 5.5988 19.7163 5.71602 19.7327 5.95674C19.7496 6.20421 19.75 6.5238 19.75 7C19.75 7.4762 19.7496 7.7958 19.7327 8.04326C19.7163 8.28399 19.6868 8.4012 19.6549 8.47836C19.528 8.78464 19.2846 9.02798 18.9784 9.15485C18.9012 9.18681 18.784 9.21629 18.5433 9.23271C18.2958 9.24959 17.9762 9.25 17.5 9.25C17.0238 9.25 16.7042 9.24959 16.4567 9.23271C16.216 9.21629 16.0988 9.18681 16.0216 9.15485C15.7154 9.02798 15.472 8.78464 15.3452 8.47836C15.3132 8.4012 15.2837 8.28399 15.2673 8.04326C15.2504 7.7958 15.25 7.4762 15.25 7C15.25 6.5238 15.2504 6.20421 15.2673 5.95674C15.2837 5.71602 15.3132 5.5988 15.3452 5.52165C15.472 5.21536 15.7154 4.97202 16.0216 4.84515Z" fill="#706D8A"/>
<path fill-rule="evenodd" clip-rule="evenodd" d="M8.64537 13.2708C8.34075 13.25 7.96972 13.25 7.52526 13.25H7.47474C7.03028 13.25 6.65925 13.25 6.35464 13.2708C6.03754 13.2924 5.73801 13.339 5.44762 13.4593C4.77379 13.7384 4.23844 14.2738 3.95933 14.9476C3.83905 15.238 3.79241 15.5375 3.77077 15.8546C3.74999 16.1592 3.74999 16.5303 3.75 16.9747V17.0253C3.74999 17.4697 3.74999 17.8408 3.77077 18.1454C3.79241 18.4625 3.83905 18.762 3.95933 19.0524C4.23844 19.7262 4.77379 20.2616 5.44762 20.5407C5.73801 20.661 6.03754 20.7076 6.35464 20.7292C6.65925 20.75 7.03028 20.75 7.47474 20.75H7.52526C7.96972 20.75 8.34075 20.75 8.64537 20.7292C8.96247 20.7076 9.26199 20.661 9.55238 20.5407C10.2262 20.2616 10.7616 19.7262 11.0407 19.0524C11.161 18.762 11.2076 18.4625 11.2292 18.1454C11.25 17.8408 11.25 17.4697 11.25 17.0253V16.9747C11.25 16.5303 11.25 16.1592 11.2292 15.8546C11.2076 15.5375 11.161 15.238 11.0407 14.9476C10.7616 14.2738 10.2262 13.7384 9.55238 13.4593C9.26199 13.339 8.96247 13.2924 8.64537 13.2708ZM6.02165 14.8452C6.0988 14.8132 6.21602 14.7837 6.45674 14.7673C6.70421 14.7504 7.0238 14.75 7.5 14.75C7.9762 14.75 8.2958 14.7504 8.54326 14.7673C8.78399 14.7837 8.9012 14.8132 8.97836 14.8452C9.28464 14.972 9.52798 15.2154 9.65485 15.5216C9.68681 15.5988 9.71629 15.716 9.73271 15.9567C9.74959 16.2042 9.75 16.5238 9.75 17C9.75 17.4762 9.74959 17.7958 9.73271 18.0433C9.71629 18.284 9.68681 18.4012 9.65485 18.4784C9.52798 18.7846 9.28464 19.028 8.97836 19.1549C8.9012 19.1868 8.78399 19.2163 8.54326 19.2327C8.2958 19.2496 7.9762 19.25 7.5 19.25C7.0238 19.25 6.70421 19.2496 6.45674 19.2327C6.21602 19.2163 6.0988 19.1868 6.02165 19.1549C5.71536 19.028 5.47202 18.7846 5.34515 18.4784C5.31319 18.4012 5.28372 18.284 5.26729 18.0433C5.25041 17.7958 5.25 17.4762 5.25 17C5.25 16.5238 5.25041 16.2042 5.26729 15.9567C5.28372 15.716 5.31319 15.5988 5.34515 15.5216C5.47202 15.2154 5.71536 14.972 6.02165 14.8452Z" fill="#706D8A"/>
<path fill-rule="evenodd" clip-rule="evenodd" d="M18.6454 13.2708C18.3408 13.25 17.9697 13.25 17.5253 13.25H17.4747C17.0303 13.25 16.6592 13.25 16.3546 13.2708C16.0375 13.2924 15.738 13.339 15.4476 13.4593C14.7738 13.7384 14.2384 14.2738 13.9593 14.9476C13.839 15.238 13.7924 15.5375 13.7708 15.8546C13.75 16.1592 13.75 16.5303 13.75 16.9747V17.0253C13.75 17.4697 13.75 17.8408 13.7708 18.1454C13.7924 18.4625 13.839 18.762 13.9593 19.0524C14.2384 19.7262 14.7738 20.2616 15.4476 20.5407C15.738 20.661 16.0375 20.7076 16.3546 20.7292C16.6592 20.75 17.0303 20.75 17.4747 20.75H17.5253C17.9697 20.75 18.3408 20.75 18.6454 20.7292C18.9625 20.7076 19.262 20.661 19.5524 20.5407C20.2262 20.2616 20.7616 19.7262 21.0407 19.0524C21.161 18.762 21.2076 18.4625 21.2292 18.1454C21.25 17.8408 21.25 17.4697 21.25 17.0253V16.9747C21.25 16.5303 21.25 16.1592 21.2292 15.8546C21.2076 15.5375 21.161 15.238 21.0407 14.9476C20.7616 14.2738 20.2262 13.7384 19.5524 13.4593C19.262 13.339 18.9625 13.2924 18.6454 13.2708ZM16.0216 14.8452C16.0988 14.8132 16.216 14.7837 16.4567 14.7673C16.7042 14.7504 17.0238 14.75 17.5 14.75C17.9762 14.75 18.2958 14.7504 18.5433 14.7673C18.784 14.7837 18.9012 14.8132 18.9784 14.8452C19.2846 14.972 19.528 15.2154 19.6549 15.5216C19.6868 15.5988 19.7163 15.716 19.7327 15.9567C19.7496 16.2042 19.75 16.5238 19.75 17C19.75 17.4762 19.7496 17.7958 19.7327 18.0433C19.7163 18.284 19.6868 18.4012 19.6549 18.4784C19.528 18.7846 19.2846 19.028 18.9784 19.1549C18.9012 19.1868 18.784 19.2163 18.5433 19.2327C18.2958 19.2496 17.9762 19.25 17.5 19.25C17.0238 19.25 16.7042 19.2496 16.4567 19.2327C16.216 19.2163 16.0988 19.1868 16.0216 19.1549C15.7154 19.028 15.472 18.7846 15.3452 18.4784C15.3132 18.4012 15.2837 18.284 15.2673 18.0433C15.2504 17.7958 15.25 17.4762 15.25 17C15.25 16.5238 15.2504 16.2042 15.2673 15.9567C15.2837 15.716 15.3132 15.5988 15.3452 15.5216C15.472 15.2154 15.7154 14.972 16.0216 14.8452Z" fill="#706D8A"/>
</svg>
