<svg width="19" height="18" viewBox="0 0 19 18" fill="none" xmlns="http://www.w3.org/2000/svg">
<path fill-rule="evenodd" clip-rule="evenodd" d="M9.78418 0.9375C7.81667 0.9375 6.22168 2.53249 6.22168 4.5V4.6875H3.78418C3.47352 4.6875 3.22168 4.93934 3.22168 5.25C3.22168 5.56066 3.47352 5.8125 3.78418 5.8125H15.7842C16.0948 5.8125 16.3467 5.56066 16.3467 5.25C16.3467 4.93934 16.0948 4.6875 15.7842 4.6875H13.3467V4.5C13.3467 2.53249 11.7517 0.9375 9.78418 0.9375ZM9.78418 2.0625C11.1304 2.0625 12.2217 3.15381 12.2217 4.5V4.6875H7.34668V4.5C7.34668 3.15381 8.43799 2.0625 9.78418 2.0625Z" fill="white"/>
<path d="M5.09416 6.69679C5.06477 6.38753 4.79024 6.16064 4.48097 6.19002C4.17171 6.21941 3.94482 6.49394 3.9742 6.80321C4.04505 7.54892 4.17292 8.46773 4.33729 9.6488L4.54845 11.1661C4.75033 12.6172 4.86481 13.4401 5.1125 14.1142C5.57346 15.3689 6.39572 16.3746 7.45322 16.8209C8.02748 17.0632 8.68432 17.0629 9.66218 17.0625H9.90618C10.884 17.0629 11.5409 17.0632 12.1151 16.8209C13.1726 16.3746 13.9949 15.3689 14.4559 14.1142C14.7035 13.4401 14.818 12.6172 15.0199 11.1661L15.2311 9.64881C15.3954 8.46774 15.5233 7.54892 15.5942 6.80321C15.6235 6.49394 15.3967 6.21941 15.0874 6.19002C14.7781 6.16064 14.5036 6.38753 14.4742 6.69679C14.4059 7.41527 14.2815 8.31002 14.1149 9.50708L13.9182 10.9209C13.7003 12.4866 13.6005 13.1802 13.3999 13.7263C13.013 14.7794 12.3696 15.4924 11.6778 15.7844C11.3401 15.9269 10.9311 15.9375 9.78418 15.9375C8.6373 15.9375 8.22826 15.9269 7.89061 15.7844C7.19878 15.4924 6.5554 14.7794 6.16848 13.7263C5.96785 13.1802 5.86806 12.4866 5.65016 10.9209L5.45341 9.50709C5.28682 8.31002 5.16242 7.41527 5.09416 6.69679Z" fill="white"/>
</svg>
