<svg width="19" height="18" viewBox="0 0 19 18" fill="none" xmlns="http://www.w3.org/2000/svg">
<path fill-rule="evenodd" clip-rule="evenodd" d="M12.1906 3.24413C11.607 2.90718 11.1204 2.6262 10.7041 2.4551C10.2647 2.2745 9.8269 2.18255 9.36026 2.30758C8.89363 2.43262 8.56048 2.73114 8.27023 3.10725C7.99525 3.46359 7.71431 3.95023 7.3774 4.53382L4.47069 9.56831C4.27526 9.90615 4.11563 10.1821 4.03495 10.4785C4.02342 10.5208 4.0135 10.5635 4.00533 10.607C3.9399 10.9542 3.99329 11.3028 4.06081 11.7437L4.079 11.8629C4.20364 12.6814 4.30638 13.3561 4.46133 13.8677C4.62338 14.4028 4.8725 14.8659 5.36245 15.1488C5.85241 15.4317 6.37805 15.4159 6.92247 15.2887C7.44302 15.167 8.07867 14.9187 8.84984 14.6174L8.96215 14.5735C9.37775 14.4116 9.70636 14.2835 9.97438 14.0532C10.2424 13.8229 10.4185 13.5173 10.6412 13.1308L13.5478 8.09632C13.8848 7.51276 14.1658 7.02613 14.3369 6.60982C14.5175 6.1704 14.6094 5.73263 14.4844 5.26599C14.3593 4.79935 14.0608 4.46621 13.6847 4.17596C13.3284 3.90098 12.8417 3.62004 12.2581 3.28313L12.1906 3.24413ZM12.2728 8.05473L8.05093 5.61723L5.48335 10.0644C5.20363 10.5489 5.13634 10.6801 5.11087 10.8153C5.08541 10.9504 5.10034 11.0971 5.18458 11.6502C5.31751 12.523 5.40933 13.1167 5.53803 13.5416C5.66235 13.9521 5.79056 14.0969 5.92495 14.1745C6.05935 14.2521 6.24887 14.2907 6.66652 14.1932C7.09888 14.0921 7.65895 13.8748 8.48131 13.5535C9.00239 13.35 9.1369 13.2895 9.24121 13.1999C9.34553 13.1103 9.42551 12.9864 9.70522 12.5019L12.2728 8.05473ZM12.8341 7.07977C13.0449 6.70833 13.1969 6.42398 13.2963 6.18215C13.4291 5.85916 13.4335 5.69067 13.3977 5.55716C13.3619 5.42365 13.2739 5.27995 12.9974 5.0666C12.708 4.84328 12.288 4.59941 11.6619 4.23791C11.0357 3.8764 10.6145 3.6346 10.2764 3.49564C9.95343 3.36289 9.78495 3.35847 9.65144 3.39425C9.51792 3.43002 9.37422 3.51809 9.16087 3.79456C9.00114 4.00154 8.83089 4.27536 8.61461 4.64363L12.8341 7.07977Z" fill="white"/>
</svg>
