<svg width="24" height="25" viewBox="0 0 24 25" fill="none" xmlns="http://www.w3.org/2000/svg">
<path d="M3 6.97246C3 5.05467 4.55467 3.5 6.47246 3.5H17.5842C19.4707 3.5 21 5.02929 21 6.91577C21 7.92052 20.5576 8.87431 19.7906 9.52332L16.2703 12.5021C15.1475 13.4521 14.5 14.8482 14.5 16.319V18.0996C14.5 18.9795 14.079 19.8062 13.3675 20.3237L11.4262 21.7355C10.4165 22.4698 9 21.7485 9 20.5V16.1995C9 14.798 8.41177 13.4608 7.37862 12.5137L4.12603 9.5322C3.40852 8.87448 3 7.94581 3 6.97246Z" stroke="#8A8A8C" stroke-width="1.5"/>
</svg>
