<svg width="101" height="100" viewBox="0 0 101 100" fill="none" xmlns="http://www.w3.org/2000/svg">
<path d="M38 57.5833C37.5858 57.5833 37.25 57.9191 37.25 58.3333C37.25 58.7475 37.5858 59.0833 38 59.0833V57.5833ZM63 59.0833C63.4142 59.0833 63.75 58.7475 63.75 58.3333C63.75 57.9191 63.4142 57.5833 63 57.5833V59.0833ZM49.75 70.8333C49.75 71.2475 50.0858 71.5833 50.5 71.5833C50.9142 71.5833 51.25 71.2475 51.25 70.8333H49.75ZM51.25 45.8333C51.25 45.4191 50.9142 45.0833 50.5 45.0833C50.0858 45.0833 49.75 45.4191 49.75 45.8333H51.25ZM27.3955 86.4803L27.1637 87.1936H27.1637L27.3955 86.4803ZM14.0197 73.1045L14.7329 72.8728H14.7329L14.0197 73.1045ZM86.9803 73.1045L87.6936 73.3363L86.9803 73.1045ZM73.6045 86.4803L73.8363 87.1936L73.6045 86.4803ZM53.0007 29.1802L52.9967 29.9302L53.0007 29.1802ZM73.6045 30.1863L73.8363 29.473L73.6045 30.1863ZM86.9803 43.5621L87.6936 43.3304L86.9803 43.5621ZM37.7558 14.2684L37.3856 14.9207L37.7558 14.2684ZM44.8329 22.6092L44.1386 22.8929L44.1386 22.893L44.8329 22.6092ZM16.431 13.2074L16.0608 12.5551L16.0608 12.5551L16.431 13.2074ZM13.6002 16.5437L12.9059 16.26L13.6002 16.5437ZM44.8721 22.7052L44.1778 22.989L44.1779 22.989L44.8721 22.7052ZM38 59.0833H63V57.5833H38V59.0833ZM51.25 70.8333V45.8333H49.75V70.8333H51.25ZM58.8333 86.75H42.1667V88.25H58.8333V86.75ZM42.1667 86.75C34.353 86.75 30.624 86.7407 27.6272 85.7671L27.1637 87.1936C30.4433 88.2592 34.4697 88.25 42.1667 88.25V86.75ZM12.25 50C12.25 53.8755 12.2499 58.8782 12.3778 63.3053C12.4417 65.5186 12.5378 67.597 12.6828 69.3239C12.8259 71.0279 13.0215 72.4595 13.3064 73.3363L14.7329 72.8728C14.508 72.1805 14.3212 70.9089 14.1775 69.1983C14.0358 67.5107 13.9407 65.4632 13.8771 63.2621C13.7501 58.8604 13.75 53.8798 13.75 50H12.25ZM27.6272 85.7671C21.5131 83.7804 16.7195 78.9869 14.7329 72.8728L13.3064 73.3363C15.4413 79.9071 20.5929 85.0587 27.1637 87.1936L27.6272 85.7671ZM87.25 58.3333C87.25 66.147 87.2407 69.876 86.2671 72.8728L87.6936 73.3363C88.7592 70.0567 88.75 66.0303 88.75 58.3333H87.25ZM58.8333 88.25C66.5303 88.25 70.5567 88.2592 73.8363 87.1936L73.3728 85.7671C70.376 86.7407 66.647 86.75 58.8333 86.75V88.25ZM86.2671 72.8728C84.2805 78.9869 79.4869 83.7804 73.3728 85.7671L73.8363 87.1936C80.4071 85.0587 85.5587 79.9071 87.6936 73.3363L86.2671 72.8728ZM52.9967 29.9302C57.0446 29.952 61.5867 30.0089 65.4129 30.1572C67.3266 30.2314 69.0535 30.3281 70.4463 30.4539C71.8636 30.5818 72.8648 30.7346 73.3728 30.8996L73.8363 29.473C73.1466 29.2489 71.986 29.0868 70.5812 28.96C69.1519 28.8309 67.3963 28.7329 65.471 28.6583C61.6192 28.509 57.057 28.452 53.0047 28.4302L52.9967 29.9302ZM88.75 58.3333C88.75 50.6364 88.7592 46.61 87.6936 43.3304L86.2671 43.7939C87.2407 46.7906 87.25 50.5196 87.25 58.3333H88.75ZM73.3728 30.8996C79.4869 32.8862 84.2805 37.6798 86.2671 43.7939L87.6936 43.3304C85.5587 36.7596 80.4071 31.608 73.8363 29.473L73.3728 30.8996ZM13.75 50V23.7245H12.25V50H13.75ZM22.5238 13.25C26.5764 13.25 29.5653 13.2507 31.9319 13.4679C34.2865 13.684 35.957 14.1098 37.3856 14.9207L38.126 13.6161C36.4389 12.6586 34.5321 12.2002 32.069 11.9742C29.618 11.7493 26.5487 11.75 22.5238 11.75V13.25ZM37.3856 14.9207C40.316 16.5839 42.7057 19.3862 44.1386 22.8929L45.5271 22.3255C43.9815 18.5427 41.3807 15.4634 38.126 13.6161L37.3856 14.9207ZM22.5238 11.75C20.9222 11.75 19.6703 11.7493 18.6646 11.8416C17.6468 11.935 16.8132 12.1281 16.0608 12.5551L16.8012 13.8596C17.2951 13.5793 17.8924 13.4187 18.8017 13.3353C19.723 13.2507 20.8945 13.25 22.5238 13.25V11.75ZM13.75 23.7245C13.75 21.8105 13.7504 20.4115 13.8234 19.3064C13.896 18.2067 14.0381 17.4547 14.2945 16.8274L12.9059 16.26C12.5621 17.1015 12.4041 18.0359 12.3267 19.2075C12.2496 20.3736 12.25 21.8305 12.25 23.7245H13.75ZM16.0608 12.5551C14.6617 13.3492 13.558 14.6641 12.9059 16.26L14.2945 16.8274C14.8338 15.5075 15.7263 14.4697 16.8012 13.8596L16.0608 12.5551ZM45.5663 22.4215L45.5271 22.3255L44.1386 22.893L44.1778 22.989L45.5663 22.4215ZM53.0047 28.4302C49.6953 28.4124 46.9202 25.7337 45.5663 22.4214L44.1779 22.989C45.6509 26.5928 48.8347 29.9078 52.9967 29.9302L53.0047 28.4302Z" fill="#6418C3"/>
</svg>
