<svg width="21" height="20" viewBox="0 0 21 20" fill="none" xmlns="http://www.w3.org/2000/svg">
<path d="M17.375 5.31251H15.3484C15.6384 4.8907 15.7996 4.39375 15.8125 3.88204C15.8241 3.49222 15.7558 3.10415 15.6119 2.74167C15.468 2.3792 15.2516 2.04996 14.9758 1.7742C14.7 1.49843 14.3708 1.28196 14.0083 1.13808C13.6459 0.994195 13.2578 0.925941 12.868 0.937507C12.5079 0.945191 12.1533 1.02723 11.8265 1.17848C11.4997 1.32973 11.2076 1.54692 10.9688 1.81641C10.7925 2.01741 10.6356 2.23451 10.5 2.46485C10.3644 2.23451 10.2075 2.01741 10.0312 1.81641C9.79236 1.54692 9.50032 1.32973 9.17349 1.17848C8.84666 1.02723 8.49208 0.945191 8.13203 0.937507C7.74221 0.925941 7.35415 0.994195 6.99167 1.13808C6.62919 1.28196 6.29996 1.49843 6.02419 1.7742C5.74843 2.04996 5.53195 2.3792 5.38807 2.74167C5.24419 3.10415 5.17593 3.49222 5.1875 3.88204C5.20036 4.39375 5.36158 4.8907 5.65156 5.31251H3.625C3.2106 5.31251 2.81317 5.47713 2.52015 5.77015C2.22712 6.06318 2.0625 6.46061 2.0625 6.87501V9.37501C2.06243 9.73521 2.18681 10.0844 2.41459 10.3634C2.64238 10.6425 2.95957 10.8342 3.3125 10.9063V15.625C3.3125 16.0394 3.47712 16.4368 3.77015 16.7299C4.06317 17.0229 4.4606 17.1875 4.875 17.1875H16.125C16.5394 17.1875 16.9368 17.0229 17.2299 16.7299C17.5229 16.4368 17.6875 16.0394 17.6875 15.625V10.9063C18.0404 10.8342 18.3576 10.6425 18.5854 10.3634C18.8132 10.0844 18.9376 9.73521 18.9375 9.37501V6.87501C18.9375 6.46061 18.7729 6.06318 18.4799 5.77015C18.1868 5.47713 17.7894 5.31251 17.375 5.31251ZM17.0625 9.06251H11.4375V7.18751H17.0625V9.06251ZM12.375 3.06016C12.4442 2.98341 12.5284 2.92179 12.6225 2.87917C12.7167 2.83655 12.8186 2.81385 12.9219 2.81251H12.9492C13.0814 2.81213 13.2124 2.83835 13.3342 2.88961C13.4561 2.94086 13.5664 3.0161 13.6586 3.11085C13.7508 3.20561 13.823 3.31794 13.8709 3.44116C13.9188 3.56438 13.9415 3.69598 13.9375 3.82813C13.9362 3.93144 13.9135 4.03335 13.8708 4.12746C13.8282 4.22157 13.7666 4.30585 13.6898 4.37501C13.1508 4.85313 12.2641 5.09844 11.5312 5.21563C11.6484 4.48594 11.8938 3.59923 12.375 3.06016ZM7.35156 3.10157C7.53701 2.91811 7.7868 2.81438 8.04766 2.81251H8.07812C8.18143 2.81385 8.28334 2.83655 8.37745 2.87917C8.47157 2.92179 8.55585 2.98341 8.625 3.06016C9.10313 3.59923 9.34844 4.48516 9.46484 5.21719C8.73828 5.09923 7.84375 4.85391 7.31016 4.37501C7.2334 4.30585 7.17178 4.22157 7.12916 4.12746C7.08654 4.03335 7.06384 3.93144 7.0625 3.82813C7.05904 3.69377 7.08288 3.56011 7.13256 3.43522C7.18225 3.31034 7.25675 3.19683 7.35156 3.10157ZM3.9375 7.18751H9.5625V9.06251H3.9375V7.18751ZM5.1875 10.9375H9.5625V15.3125H5.1875V10.9375ZM11.4375 15.3125V10.9375H15.8125V15.3125H11.4375Z" fill="#C0AFFF"/>
</svg>
