<svg width="24" height="24" viewBox="0 0 24 24" fill="none" xmlns="http://www.w3.org/2000/svg">
<path fill-rule="evenodd" clip-rule="evenodd" d="M4.42216 4.3986C8.6203 0.200466 15.4268 0.200466 19.625 4.3986C23.8231 8.59674 23.8231 15.4033 19.625 19.6014C18.3913 20.835 16.496 21.963 14.384 22.4682C12.2616 22.9759 9.86471 22.8653 7.70156 21.5286C7.58932 21.4592 7.51746 21.4149 7.46319 21.3832C7.42634 21.3618 7.40995 21.3536 7.40661 21.3519C7.37015 21.3377 7.35788 21.3362 7.35681 21.336C7.35509 21.3357 7.34144 21.3336 7.29977 21.3368C7.30706 21.3362 7.29965 21.3359 7.25539 21.3459C7.20838 21.3566 7.14651 21.3725 7.04211 21.3996L7.01562 21.4064C6.40923 21.5636 5.91729 21.6911 5.52127 21.7658C5.12297 21.8409 4.73644 21.881 4.3646 21.8053C3.28334 21.5852 2.43831 20.7402 2.21826 19.659C2.14259 19.2871 2.18265 18.9006 2.25776 18.5023C2.33244 18.1063 2.45994 17.6143 2.61712 17.0079L2.62399 16.9814C2.65106 16.877 2.667 16.8152 2.67762 16.7682C2.6876 16.724 2.68727 16.7166 2.68672 16.7239C2.68988 16.6827 2.68774 16.6689 2.68741 16.6668C2.6871 16.6647 2.68515 16.6517 2.67143 16.6166C2.66973 16.6132 2.66155 16.597 2.64023 16.5606C2.60871 16.5068 2.56453 16.4356 2.49523 16.3241C1.15665 14.1701 1.01733 11.7994 1.51493 9.68213C2.00995 7.57586 3.14249 5.67827 4.42216 4.3986ZM18.5643 5.45926C14.9519 1.84691 9.09517 1.84691 5.48282 5.45926C4.3941 6.54798 3.40428 8.19937 2.97515 10.0253C2.54861 11.8402 2.68336 13.785 3.76926 15.5323C3.7791 15.5482 3.78898 15.564 3.79884 15.5798C3.90225 15.7457 4.00462 15.91 4.06326 16.0572C4.16817 16.3207 4.20401 16.5559 4.18232 16.8386C4.17023 16.9962 4.1276 17.1598 4.08673 17.3166C4.08313 17.3304 4.07955 17.3441 4.07601 17.3578C3.91033 17.997 3.79597 18.4399 3.73178 18.7803C3.66693 19.1241 3.6716 19.2786 3.68813 19.3598C3.78815 19.8513 4.17226 20.2354 4.66374 20.3354C4.74498 20.352 4.89943 20.3566 5.24331 20.2918C5.5837 20.2276 6.02655 20.1132 6.66577 19.9475C6.67946 19.944 6.69321 19.9404 6.70701 19.9368C6.86371 19.896 7.0271 19.8534 7.18421 19.8413C7.46656 19.8194 7.70004 19.8547 7.96333 19.959C8.11024 20.0172 8.27515 20.1194 8.44214 20.2229C8.45811 20.2328 8.47411 20.2427 8.49011 20.2526C10.2368 21.332 12.2034 21.4475 14.035 21.0093C15.8771 20.5687 17.5263 19.5788 18.5643 18.5407C22.1766 14.9284 22.1766 9.07161 18.5643 5.45926Z" fill="#2D264B"/>
<path d="M9.05301 11.8578C9.05301 12.4101 8.60529 12.8578 8.05301 12.8578C7.50072 12.8578 7.05301 12.4101 7.05301 11.8578C7.05301 11.3055 7.50072 10.8578 8.05301 10.8578C8.60529 10.8578 9.05301 11.3055 9.05301 11.8578Z" fill="#2D264B"/>
<path d="M13.053 11.8578C13.053 12.4101 12.6053 12.8578 12.053 12.8578C11.5007 12.8578 11.053 12.4101 11.053 11.8578C11.053 11.3055 11.5007 10.8578 12.053 10.8578C12.6053 10.8578 13.053 11.3055 13.053 11.8578Z" fill="#2D264B"/>
<path d="M17.053 11.8578C17.053 12.4101 16.6053 12.8578 16.053 12.8578C15.5007 12.8578 15.053 12.4101 15.053 11.8578C15.053 11.3055 15.5007 10.8578 16.053 10.8578C16.6053 10.8578 17.053 11.3055 17.053 11.8578Z" fill="#2D264B"/>
</svg>
