<svg width="21" height="20" viewBox="0 0 21 20" fill="none" xmlns="http://www.w3.org/2000/svg">
<path d="M18.966 10.8906C18.8458 10.7701 18.695 10.6846 18.5298 10.6433C18.3646 10.602 18.1913 10.6065 18.0285 10.6562C16.8911 10.9996 15.6819 11.028 14.5296 10.7385C13.3773 10.4489 12.3252 9.8522 11.4852 9.01192C10.6452 8.17164 10.0489 7.11926 9.75982 5.96687C9.47069 4.81448 9.49957 3.60524 9.84337 2.46797C9.89353 2.30508 9.89833 2.1316 9.85727 1.96618C9.8162 1.80077 9.73082 1.64968 9.6103 1.52916C9.48978 1.40865 9.3387 1.32327 9.17328 1.2822C9.00787 1.24113 8.83439 1.24594 8.6715 1.29609C6.96087 1.82187 5.45969 2.87387 4.38166 4.30234C3.43892 5.55538 2.86403 7.04634 2.72147 8.60792C2.57891 10.1695 2.87434 11.7399 3.57459 13.1429C4.27485 14.546 5.35223 15.7261 6.68585 16.5509C8.01947 17.3757 9.55655 17.8126 11.1246 17.8125C12.9554 17.8179 14.7373 17.2226 16.1973 16.118C17.625 15.0389 18.6759 13.5368 19.2004 11.8258C19.2497 11.6633 19.2539 11.4905 19.2126 11.3258C19.1714 11.1611 19.0861 11.0107 18.966 10.8906ZM15.0692 14.6203C13.8055 15.5716 12.2407 16.0345 10.6629 15.9238C9.08506 15.8131 7.60029 15.1362 6.48184 14.0178C5.36339 12.8993 4.68653 11.4146 4.57582 9.83672C4.46511 8.25888 4.92801 6.69414 5.87931 5.43047C6.37988 4.76833 7.00025 4.206 7.70822 3.77265C7.69416 3.97265 7.68712 4.17344 7.68712 4.375C7.68961 6.612 8.57935 8.75667 10.1612 10.3385C11.743 11.9203 13.8876 12.81 16.1246 12.8125C16.3262 12.8125 16.527 12.8055 16.727 12.7914C16.2938 13.4995 15.7315 14.1199 15.0692 14.6203Z" fill="#C0AFFF"/>
</svg>
