<svg width="20" height="20" viewBox="0 0 20 20" fill="none" xmlns="http://www.w3.org/2000/svg">
<path fill-rule="evenodd" clip-rule="evenodd" d="M9.24966 1.04166C6.42003 1.04166 4.23071 3.52168 4.58168 6.32946L4.64781 6.8585C4.74458 7.63263 4.4618 8.40587 3.88846 8.93495C2.70039 10.0313 2.37031 11.7762 3.07586 13.2308L3.16198 13.4083C3.78377 14.6902 5.04632 15.5297 6.45575 15.6174L6.61264 15.8863C7.45664 17.3332 8.77164 18.125 10.1525 18.125C11.5334 18.125 12.8484 17.3332 13.6924 15.8863L13.8517 15.6132C15.0356 15.5196 16.1151 14.8761 16.7589 13.8644C17.744 12.3166 17.4831 10.286 16.1387 9.03746L16.1021 9.00349C15.4867 8.43193 15.1836 7.59926 15.2878 6.76583L15.3417 6.33506C15.693 3.5243 13.5014 1.04166 10.6688 1.04166H9.24966ZM6.80732 14.375C6.81484 14.3749 6.82235 14.3749 6.82985 14.375H13.4751C13.4827 14.3749 13.4902 14.3749 13.4977 14.375H13.5516C14.424 14.375 15.2359 13.9293 15.7043 13.1933C16.3656 12.1544 16.1904 10.7914 15.2881 9.9534L15.2515 9.91943C14.3415 9.07431 13.8934 7.84311 14.0475 6.61079L14.1013 6.18001C14.3594 4.11533 12.7495 2.29166 10.6688 2.29166H9.24966C7.1719 2.29166 5.56431 4.1127 5.82203 6.17442L5.88816 6.70346C6.03496 7.87787 5.60597 9.05094 4.73617 9.85358C3.95304 10.5762 3.73546 11.7265 4.20053 12.6852L4.28665 12.8628C4.7353 13.7877 5.67292 14.375 6.7009 14.375H6.80732ZM10.1525 16.875C9.38489 16.875 8.5659 16.4897 7.93312 15.625H12.3719C11.7391 16.4897 10.9201 16.875 10.1525 16.875Z" fill="#475569"/>
</svg>
