<svg width="25" height="24" viewBox="0 0 25 24" fill="none" xmlns="http://www.w3.org/2000/svg">
<path fill-rule="evenodd" clip-rule="evenodd" d="M21.5278 7.7072C22.139 4.52061 19.3413 1.72299 16.1547 2.33413L7.00569 4.08877C5.01685 4.4702 3.4263 5.97565 2.92098 7.93181C1.91207 11.8374 5.53411 15.4068 9.4232 14.2631C9.5306 14.2316 9.63038 14.3313 9.5988 14.4387C8.45512 18.3279 12.0245 21.9499 15.9302 20.941C17.8863 20.4357 19.3918 18.8451 19.7732 16.8563L21.5278 7.7072ZM16.4373 3.80728C18.5826 3.39583 20.4661 5.27932 20.0547 7.42468L18.3001 16.5737C18.0287 17.9886 16.9544 19.1272 15.555 19.4887C12.7579 20.2112 10.2285 17.6144 11.0379 14.8619C11.4044 13.6156 10.2464 12.4575 9 12.8241C6.2476 13.6335 3.65074 11.1041 4.3733 8.30699C4.73481 6.90755 5.87333 5.83328 7.28822 5.56192L16.4373 3.80728Z" fill="#2D264B"/>
</svg>
