<svg width="40" height="40" viewBox="0 0 40 40" fill="none" xmlns="http://www.w3.org/2000/svg">
<rect width="40" height="40" rx="20" fill="#EEF2FF"/>
<g clip-path="url(#clip0_265_33647)">
<path d="M18.9079 14.986L18.1925 14.7609L18.9079 14.986ZM17.1416 17.9502L17.5918 17.3504L17.1416 17.9502ZM17.5586 19.2759L18.274 19.5009L17.5586 19.2759ZM19.3249 20.6015L18.8747 20.0017L19.3249 20.6015ZM20.6743 20.6015L21.1244 20.0017L20.6743 20.6015ZM22.4406 19.2759L21.7251 19.5009L22.4406 19.2759ZM22.8576 17.9502L22.4074 17.3504L22.8576 17.9502ZM21.0912 14.986L21.8067 14.7609L21.0912 14.986ZM18.227 24.8592L17.5774 24.4842H17.5774L18.227 24.8592ZM16.7632 27.3945L17.4127 27.7695H17.4127L16.7632 27.3945ZM11.5249 24.3702L10.8754 23.9952L11.5249 24.3702ZM12.9887 21.8349L13.6382 22.2099L12.9887 21.8349ZM15.1937 27.2601L14.484 27.5027H14.484L15.1937 27.2601ZM14.9905 26.6657L15.7001 26.4231L15.7001 26.4231L14.9905 26.6657ZM13.0425 25.541L12.8977 24.8051H12.8977L13.0425 25.541ZM12.4261 25.6623L12.5708 26.3982H12.5708L12.4261 25.6623ZM14.3679 25.4946L14.7429 24.8451H14.7429L14.3679 25.4946ZM11.0643 25.671L10.4492 26.1001L11.0643 25.671ZM18.6496 24.1099L18.0505 23.6589L18.0145 23.7067L17.9865 23.7596L18.6496 24.1099ZM21.5402 24.8592L22.1898 24.4842L21.5402 24.8592ZM23.004 27.3945L23.6536 27.0195L23.004 27.3945ZM28.2423 24.3702L28.8918 23.9952L28.2423 24.3702ZM26.7785 21.8349L26.129 22.2099L26.7785 21.8349ZM24.5735 27.2601L25.2832 27.5027L24.5735 27.2601ZM24.7767 26.6657L24.0671 26.4231V26.4231L24.7767 26.6657ZM26.7247 25.541L26.8695 24.8051H26.8695L26.7247 25.541ZM27.3411 25.6623L27.1964 26.3982H27.1964L27.3411 25.6623ZM28.7029 25.671L29.318 26.1001L28.7029 25.671ZM21.114 24.1031H20.364V24.2886L20.4504 24.4527L21.114 24.1031ZM14.0225 20.4561L13.3504 20.7891L14.0225 20.4561ZM18.7019 24.0405L18.8471 23.3046L18.7019 24.0405ZM21.114 24.074L20.9895 23.3343L21.114 24.074ZM25.9267 20.5549L25.2603 20.2108L25.9267 20.5549ZM14.0829 17.5C14.0829 14.2323 16.7319 11.5833 19.9996 11.5833V10.0833C15.9035 10.0833 12.5829 13.4039 12.5829 17.5H14.0829ZM19.9996 11.5833C23.2673 11.5833 25.9162 14.2323 25.9162 17.5H27.4162C27.4162 13.4039 24.0957 10.0833 19.9996 10.0833V11.5833ZM17.8163 16.5553C18.6544 16.5553 19.3755 15.9991 19.6234 15.211L18.1925 14.7609C18.133 14.9499 17.9727 15.0553 17.8163 15.0553V16.5553ZM17.5918 17.3504C17.4304 17.2292 17.3799 17.0407 17.4401 16.8496C17.4996 16.6602 17.6374 16.5553 17.8163 16.5553V15.0553C15.9296 15.0553 15.259 17.475 16.6914 18.5501L17.5918 17.3504ZM18.274 19.5009C18.5208 18.7165 18.2547 17.8479 17.5918 17.3504L16.6914 18.5501C16.8331 18.6564 16.9037 18.8582 16.8431 19.0508L18.274 19.5009ZM18.8747 20.0017C18.7221 20.1162 18.5628 20.1045 18.4257 20.0017C18.2852 19.8962 18.2059 19.7173 18.274 19.5009L16.8431 19.0508C16.5676 19.9268 16.9217 20.7483 17.5253 21.2014C18.1325 21.657 19.0281 21.762 19.7751 21.2014L18.8747 20.0017ZM21.1244 20.0017C20.4554 19.4995 19.5437 19.4995 18.8747 20.0017L19.7751 21.2014C19.9106 21.0996 20.0885 21.0996 20.2241 21.2014L21.1244 20.0017ZM21.7251 19.5009C21.7932 19.7173 21.714 19.8962 21.5734 20.0017C21.4364 20.1045 21.2771 20.1162 21.1244 20.0017L20.2241 21.2014C20.971 21.762 21.8667 21.657 22.4738 21.2014C23.0774 20.7483 23.4315 19.9268 23.156 19.0508L21.7251 19.5009ZM22.4074 17.3504C21.7445 17.8479 21.4784 18.7165 21.7251 19.5009L23.156 19.0508C23.0954 18.8582 23.166 18.6564 23.3077 18.5501L22.4074 17.3504ZM22.1829 16.5553C22.3617 16.5553 22.4995 16.6602 22.5591 16.8496C22.6192 17.0407 22.5687 17.2292 22.4074 17.3504L23.3077 18.5501C24.7402 17.475 24.0696 15.0553 22.1829 15.0553V16.5553ZM20.3758 15.211C20.6237 15.9991 21.3448 16.5553 22.1829 16.5553V15.0553C22.0264 15.0553 21.8661 14.9499 21.8067 14.7609L20.3758 15.211ZM21.8067 14.7609C21.2429 12.9686 18.7562 12.9686 18.1925 14.7609L19.6234 15.211C19.7468 14.8186 20.2523 14.8186 20.3758 15.211L21.8067 14.7609ZM17.5774 24.4842L16.1137 27.0195L17.4127 27.7695L18.8765 25.2342L17.5774 24.4842ZM12.1744 24.7452L13.6382 22.2099L12.3392 21.4599L10.8754 23.9952L12.1744 24.7452ZM15.9034 27.0175L15.7001 26.4231L14.2808 26.9083L14.484 27.5027L15.9034 27.0175ZM12.8977 24.8051L12.2813 24.9264L12.5708 26.3982L13.1872 26.2769L12.8977 24.8051ZM15.7001 26.4231C15.5912 26.1045 15.4881 25.7986 15.3703 25.5577C15.2434 25.2982 15.0602 25.0282 14.7429 24.8451L13.9929 26.1441C13.9525 26.1207 13.9654 26.0993 14.0229 26.2168C14.0895 26.353 14.1592 26.5527 14.2808 26.9083L15.7001 26.4231ZM13.1872 26.2769C13.556 26.2044 13.7638 26.1649 13.915 26.1545C14.0456 26.1456 14.0334 26.1675 13.9929 26.1441L14.7429 24.8451C14.4257 24.6619 14.1003 24.6382 13.8121 24.6581C13.5446 24.6765 13.2281 24.7401 12.8977 24.8051L13.1872 26.2769ZM10.8754 23.9952C10.6814 24.3313 10.4925 24.6548 10.3843 24.9236C10.2833 25.1748 10.1374 25.6531 10.4492 26.1001L11.6795 25.242C11.7473 25.3392 11.7633 25.4425 11.7604 25.5061C11.7584 25.5499 11.7487 25.5511 11.776 25.4833C11.8015 25.42 11.8448 25.331 11.9151 25.2018C11.9846 25.0741 12.0698 24.9265 12.1744 24.7452L10.8754 23.9952ZM12.2813 24.9264C12.078 24.9664 11.9129 24.9988 11.7715 25.0228C11.6284 25.0472 11.5325 25.0589 11.4668 25.0621C11.3963 25.0657 11.4047 25.0566 11.4509 25.0708C11.5174 25.0911 11.6112 25.1441 11.6795 25.242L10.4492 26.1001C10.7651 26.553 11.2697 26.5738 11.5413 26.5603C11.8294 26.546 12.195 26.4721 12.5708 26.3982L12.2813 24.9264ZM16.1137 27.0195C16.009 27.2008 15.9237 27.3484 15.8479 27.4724C15.7712 27.5979 15.7158 27.6799 15.6737 27.7337C15.6286 27.7911 15.6248 27.7821 15.6617 27.7585C15.7154 27.7242 15.8128 27.6864 15.9309 27.6966L15.803 29.1911C16.346 29.2376 16.6872 28.8721 16.8543 28.659C17.033 28.431 17.2187 28.1056 17.4127 27.7695L16.1137 27.0195ZM14.484 27.5027C14.6079 27.8651 14.7267 28.2187 14.8583 28.4754C14.9824 28.7173 15.2527 29.144 15.803 29.1911L15.9309 27.6966C16.0499 27.7067 16.1426 27.7615 16.1935 27.809C16.2288 27.8419 16.2252 27.8537 16.193 27.7908C16.163 27.7323 16.1252 27.6434 16.0747 27.5073C16.0249 27.3728 15.9704 27.2136 15.9034 27.0175L14.484 27.5027ZM13.6382 22.2099C13.9973 21.588 14.1535 21.3248 14.2977 21.1605L13.1705 20.1708C12.9038 20.4746 12.6619 20.9009 12.3392 21.4599L13.6382 22.2099ZM18.8765 25.2342C19.0511 24.9317 19.1982 24.6773 19.3128 24.4603L17.9865 23.7596C17.888 23.946 17.7573 24.1727 17.5774 24.4842L18.8765 25.2342ZM20.8907 25.2342L22.3545 27.7695L23.6536 27.0195L22.1898 24.4842L20.8907 25.2342ZM28.8918 23.9952L27.428 21.4599L26.129 22.2099L27.5928 24.7452L28.8918 23.9952ZM25.2832 27.5027L25.4864 26.9083L24.0671 26.4231L23.8639 27.0175L25.2832 27.5027ZM26.58 26.2769L27.1964 26.3982L27.4859 24.9264L26.8695 24.8051L26.58 26.2769ZM25.4864 26.9083C25.608 26.5527 25.6777 26.353 25.7443 26.2168C25.8018 26.0993 25.8147 26.1207 25.7743 26.1441L25.0243 24.8451C24.707 25.0282 24.5239 25.2982 24.3969 25.5577C24.2791 25.7986 24.176 26.1045 24.0671 26.4231L25.4864 26.9083ZM26.8695 24.8051C26.5391 24.7401 26.2226 24.6765 25.9551 24.6581C25.6669 24.6382 25.3415 24.6619 25.0243 24.8451L25.7743 26.1441C25.7338 26.1675 25.7217 26.1456 25.8522 26.1545C26.0034 26.1649 26.2113 26.2044 26.58 26.2769L26.8695 24.8051ZM27.5928 24.7452C27.6975 24.9265 27.7826 25.0741 27.8521 25.2018C27.9224 25.331 27.9657 25.42 27.9912 25.4833C28.0185 25.5511 28.0088 25.5499 28.0068 25.5061C28.0039 25.4425 28.0199 25.3392 28.0877 25.242L29.318 26.1001C29.6298 25.6531 29.4839 25.1748 29.3829 24.9236C29.2748 24.6548 29.0858 24.3313 28.8918 23.9952L27.5928 24.7452ZM27.1964 26.3982C27.5722 26.4721 27.9378 26.546 28.2259 26.5603C28.4975 26.5738 29.0021 26.553 29.318 26.1001L28.0877 25.242C28.156 25.1441 28.2498 25.0911 28.3164 25.0708C28.3625 25.0566 28.3709 25.0657 28.3004 25.0621C28.2347 25.0589 28.1388 25.0472 27.9957 25.0228C27.8543 24.9988 27.6892 24.9664 27.4859 24.9264L27.1964 26.3982ZM22.3545 27.7695C22.5485 28.1056 22.7343 28.431 22.913 28.659C23.08 28.8721 23.4213 29.2376 23.9643 29.1911L23.8363 27.6966C23.9544 27.6864 24.0519 27.7242 24.1055 27.7585C24.1424 27.7821 24.1386 27.7911 24.0935 27.7337C24.0514 27.6799 23.996 27.5979 23.9193 27.4724C23.8435 27.3484 23.7582 27.2008 23.6536 27.0195L22.3545 27.7695ZM23.8639 27.0175C23.7968 27.2136 23.7424 27.3728 23.6925 27.5073C23.6421 27.6434 23.6042 27.7323 23.5742 27.7908C23.542 27.8537 23.5384 27.8419 23.5737 27.809C23.6246 27.7615 23.7173 27.7067 23.8363 27.6966L23.9643 29.1911C24.5145 29.144 24.7848 28.7173 24.9089 28.4754C25.0405 28.2187 25.1593 27.8651 25.2832 27.5027L23.8639 27.0175ZM22.1898 24.4842C22.0078 24.169 21.8762 23.9408 21.7775 23.7534L20.4504 24.4527C20.5658 24.6715 20.7142 24.9284 20.8907 25.2342L22.1898 24.4842ZM14.6945 20.1231C14.3032 19.3334 14.0829 18.4435 14.0829 17.5H12.5829C12.5829 18.6797 12.8589 19.797 13.3504 20.7891L14.6945 20.1231ZM19.9996 23.4167C19.6045 23.4167 19.2193 23.3781 18.8471 23.3046L18.5568 24.7763C19.0241 24.8685 19.5066 24.9167 19.9996 24.9167V23.4167ZM18.8471 23.3046C17.0234 22.9449 15.4982 21.745 14.6945 20.1231L13.3504 20.7891C14.3566 22.8197 16.266 24.3244 18.5568 24.7763L18.8471 23.3046ZM19.2488 24.561L19.3011 24.4916L18.1028 23.5894L18.0505 23.6589L19.2488 24.561ZM20.9895 23.3343C20.6681 23.3884 20.3374 23.4167 19.9996 23.4167V24.9167C20.4212 24.9167 20.8351 24.8814 21.2384 24.8136L20.9895 23.3343ZM21.864 24.1031V24.074H20.364V24.1031H21.864ZM25.9162 17.5C25.9162 18.4785 25.6793 19.3995 25.2603 20.2108L26.5931 20.8991C27.1194 19.88 27.4162 18.7236 27.4162 17.5H25.9162ZM25.2603 20.2108C24.421 21.8359 22.8515 23.021 20.9895 23.3343L21.2384 24.8136C23.5777 24.4199 25.5425 22.9331 26.5931 20.8991L25.2603 20.2108ZM27.428 21.4599C27.0561 20.8157 26.7897 20.3384 26.4417 20.0097L25.4117 21.1002C25.56 21.2402 25.7029 21.4718 26.129 22.2099L27.428 21.4599ZM14.2977 21.1605C14.2921 21.1668 14.2913 21.1661 14.3005 21.1595C14.3102 21.1527 14.3274 21.142 14.3557 21.128L13.6892 19.7842C13.5345 19.8609 13.3384 19.9796 13.1705 20.1708L14.2977 21.1605Z" fill="#452667"/>
<path d="M18.9079 14.986L18.1925 14.7609L18.9079 14.986ZM17.1416 17.9502L17.5918 17.3504L17.1416 17.9502ZM17.5586 19.2759L18.274 19.5009L17.5586 19.2759ZM19.3249 20.6015L18.8747 20.0017L19.3249 20.6015ZM20.6743 20.6015L21.1244 20.0017L20.6743 20.6015ZM22.4406 19.2759L21.7251 19.5009L22.4406 19.2759ZM22.8576 17.9502L22.4074 17.3504L22.8576 17.9502ZM21.0912 14.986L21.8067 14.7609L21.0912 14.986ZM18.227 24.8592L17.5774 24.4842H17.5774L18.227 24.8592ZM16.7632 27.3945L17.4127 27.7695H17.4127L16.7632 27.3945ZM11.5249 24.3702L10.8754 23.9952L11.5249 24.3702ZM12.9887 21.8349L13.6382 22.2099L12.9887 21.8349ZM15.1937 27.2601L14.484 27.5027H14.484L15.1937 27.2601ZM14.9905 26.6657L15.7001 26.4231L15.7001 26.4231L14.9905 26.6657ZM13.0425 25.541L12.8977 24.8051H12.8977L13.0425 25.541ZM12.4261 25.6623L12.5708 26.3982H12.5708L12.4261 25.6623ZM14.3679 25.4946L14.7429 24.8451H14.7429L14.3679 25.4946ZM11.0643 25.671L10.4492 26.1001L11.0643 25.671ZM18.6496 24.1099L18.0505 23.6589L18.0145 23.7067L17.9865 23.7596L18.6496 24.1099ZM21.5402 24.8592L22.1898 24.4842L21.5402 24.8592ZM23.004 27.3945L23.6536 27.0195L23.004 27.3945ZM28.2423 24.3702L28.8918 23.9952L28.2423 24.3702ZM26.7785 21.8349L26.129 22.2099L26.7785 21.8349ZM24.5735 27.2601L25.2832 27.5027L24.5735 27.2601ZM24.7767 26.6657L24.0671 26.4231V26.4231L24.7767 26.6657ZM26.7247 25.541L26.8695 24.8051H26.8695L26.7247 25.541ZM27.3411 25.6623L27.1964 26.3982H27.1964L27.3411 25.6623ZM28.7029 25.671L29.318 26.1001L28.7029 25.671ZM21.114 24.1031H20.364V24.2886L20.4504 24.4527L21.114 24.1031ZM14.0225 20.4561L13.3504 20.7891L14.0225 20.4561ZM18.7019 24.0405L18.8471 23.3046L18.7019 24.0405ZM21.114 24.074L20.9895 23.3343L21.114 24.074ZM25.9267 20.5549L25.2603 20.2108L25.9267 20.5549ZM14.0829 17.5C14.0829 14.2323 16.7319 11.5833 19.9996 11.5833V10.0833C15.9035 10.0833 12.5829 13.4039 12.5829 17.5H14.0829ZM19.9996 11.5833C23.2673 11.5833 25.9162 14.2323 25.9162 17.5H27.4162C27.4162 13.4039 24.0957 10.0833 19.9996 10.0833V11.5833ZM17.8163 16.5553C18.6544 16.5553 19.3755 15.9991 19.6234 15.211L18.1925 14.7609C18.133 14.9499 17.9727 15.0553 17.8163 15.0553V16.5553ZM17.5918 17.3504C17.4304 17.2292 17.3799 17.0407 17.4401 16.8496C17.4996 16.6602 17.6374 16.5553 17.8163 16.5553V15.0553C15.9296 15.0553 15.259 17.475 16.6914 18.5501L17.5918 17.3504ZM18.274 19.5009C18.5208 18.7165 18.2547 17.8479 17.5918 17.3504L16.6914 18.5501C16.8331 18.6564 16.9037 18.8582 16.8431 19.0508L18.274 19.5009ZM18.8747 20.0017C18.7221 20.1162 18.5628 20.1045 18.4257 20.0017C18.2852 19.8962 18.2059 19.7173 18.274 19.5009L16.8431 19.0508C16.5676 19.9268 16.9217 20.7483 17.5253 21.2014C18.1325 21.657 19.0281 21.762 19.7751 21.2014L18.8747 20.0017ZM21.1244 20.0017C20.4554 19.4995 19.5437 19.4995 18.8747 20.0017L19.7751 21.2014C19.9106 21.0996 20.0885 21.0996 20.2241 21.2014L21.1244 20.0017ZM21.7251 19.5009C21.7932 19.7173 21.714 19.8962 21.5734 20.0017C21.4364 20.1045 21.2771 20.1162 21.1244 20.0017L20.2241 21.2014C20.971 21.762 21.8667 21.657 22.4738 21.2014C23.0774 20.7483 23.4315 19.9268 23.156 19.0508L21.7251 19.5009ZM22.4074 17.3504C21.7445 17.8479 21.4784 18.7165 21.7251 19.5009L23.156 19.0508C23.0954 18.8582 23.166 18.6564 23.3077 18.5501L22.4074 17.3504ZM22.1829 16.5553C22.3617 16.5553 22.4995 16.6602 22.5591 16.8496C22.6192 17.0407 22.5687 17.2292 22.4074 17.3504L23.3077 18.5501C24.7402 17.475 24.0696 15.0553 22.1829 15.0553V16.5553ZM20.3758 15.211C20.6237 15.9991 21.3448 16.5553 22.1829 16.5553V15.0553C22.0264 15.0553 21.8661 14.9499 21.8067 14.7609L20.3758 15.211ZM21.8067 14.7609C21.2429 12.9686 18.7562 12.9686 18.1925 14.7609L19.6234 15.211C19.7468 14.8186 20.2523 14.8186 20.3758 15.211L21.8067 14.7609ZM17.5774 24.4842L16.1137 27.0195L17.4127 27.7695L18.8765 25.2342L17.5774 24.4842ZM12.1744 24.7452L13.6382 22.2099L12.3392 21.4599L10.8754 23.9952L12.1744 24.7452ZM15.9034 27.0175L15.7001 26.4231L14.2808 26.9083L14.484 27.5027L15.9034 27.0175ZM12.8977 24.8051L12.2813 24.9264L12.5708 26.3982L13.1872 26.2769L12.8977 24.8051ZM15.7001 26.4231C15.5912 26.1045 15.4881 25.7986 15.3703 25.5577C15.2434 25.2982 15.0602 25.0282 14.7429 24.8451L13.9929 26.1441C13.9525 26.1207 13.9654 26.0993 14.0229 26.2168C14.0895 26.353 14.1592 26.5527 14.2808 26.9083L15.7001 26.4231ZM13.1872 26.2769C13.556 26.2044 13.7638 26.1649 13.915 26.1545C14.0456 26.1456 14.0334 26.1675 13.9929 26.1441L14.7429 24.8451C14.4257 24.6619 14.1003 24.6382 13.8121 24.6581C13.5446 24.6765 13.2281 24.7401 12.8977 24.8051L13.1872 26.2769ZM10.8754 23.9952C10.6814 24.3313 10.4925 24.6548 10.3843 24.9236C10.2833 25.1748 10.1374 25.6531 10.4492 26.1001L11.6795 25.242C11.7473 25.3392 11.7633 25.4425 11.7604 25.5061C11.7584 25.5499 11.7487 25.5511 11.776 25.4833C11.8015 25.42 11.8448 25.331 11.9151 25.2018C11.9846 25.0741 12.0698 24.9265 12.1744 24.7452L10.8754 23.9952ZM12.2813 24.9264C12.078 24.9664 11.9129 24.9988 11.7715 25.0228C11.6284 25.0472 11.5325 25.0589 11.4668 25.0621C11.3963 25.0657 11.4047 25.0566 11.4509 25.0708C11.5174 25.0911 11.6112 25.1441 11.6795 25.242L10.4492 26.1001C10.7651 26.553 11.2697 26.5738 11.5413 26.5603C11.8294 26.546 12.195 26.4721 12.5708 26.3982L12.2813 24.9264ZM16.1137 27.0195C16.009 27.2008 15.9237 27.3484 15.8479 27.4724C15.7712 27.5979 15.7158 27.6799 15.6737 27.7337C15.6286 27.7911 15.6248 27.7821 15.6617 27.7585C15.7154 27.7242 15.8128 27.6864 15.9309 27.6966L15.803 29.1911C16.346 29.2376 16.6872 28.8721 16.8543 28.659C17.033 28.431 17.2187 28.1056 17.4127 27.7695L16.1137 27.0195ZM14.484 27.5027C14.6079 27.8651 14.7267 28.2187 14.8583 28.4754C14.9824 28.7173 15.2527 29.144 15.803 29.1911L15.9309 27.6966C16.0499 27.7067 16.1426 27.7615 16.1935 27.809C16.2288 27.8419 16.2252 27.8537 16.193 27.7908C16.163 27.7323 16.1252 27.6434 16.0747 27.5073C16.0249 27.3728 15.9704 27.2136 15.9034 27.0175L14.484 27.5027ZM13.6382 22.2099C13.9973 21.588 14.1535 21.3248 14.2977 21.1605L13.1705 20.1708C12.9038 20.4746 12.6619 20.9009 12.3392 21.4599L13.6382 22.2099ZM18.8765 25.2342C19.0511 24.9317 19.1982 24.6773 19.3128 24.4603L17.9865 23.7596C17.888 23.946 17.7573 24.1727 17.5774 24.4842L18.8765 25.2342ZM20.8907 25.2342L22.3545 27.7695L23.6536 27.0195L22.1898 24.4842L20.8907 25.2342ZM28.8918 23.9952L27.428 21.4599L26.129 22.2099L27.5928 24.7452L28.8918 23.9952ZM25.2832 27.5027L25.4864 26.9083L24.0671 26.4231L23.8639 27.0175L25.2832 27.5027ZM26.58 26.2769L27.1964 26.3982L27.4859 24.9264L26.8695 24.8051L26.58 26.2769ZM25.4864 26.9083C25.608 26.5527 25.6777 26.353 25.7443 26.2168C25.8018 26.0993 25.8147 26.1207 25.7743 26.1441L25.0243 24.8451C24.707 25.0282 24.5239 25.2982 24.3969 25.5577C24.2791 25.7986 24.176 26.1045 24.0671 26.4231L25.4864 26.9083ZM26.8695 24.8051C26.5391 24.7401 26.2226 24.6765 25.9551 24.6581C25.6669 24.6382 25.3415 24.6619 25.0243 24.8451L25.7743 26.1441C25.7338 26.1675 25.7217 26.1456 25.8522 26.1545C26.0034 26.1649 26.2113 26.2044 26.58 26.2769L26.8695 24.8051ZM27.5928 24.7452C27.6975 24.9265 27.7826 25.0741 27.8521 25.2018C27.9224 25.331 27.9657 25.42 27.9912 25.4833C28.0185 25.5511 28.0088 25.5499 28.0068 25.5061C28.0039 25.4425 28.0199 25.3392 28.0877 25.242L29.318 26.1001C29.6298 25.6531 29.4839 25.1748 29.3829 24.9236C29.2748 24.6548 29.0858 24.3313 28.8918 23.9952L27.5928 24.7452ZM27.1964 26.3982C27.5722 26.4721 27.9378 26.546 28.2259 26.5603C28.4975 26.5738 29.0021 26.553 29.318 26.1001L28.0877 25.242C28.156 25.1441 28.2498 25.0911 28.3164 25.0708C28.3625 25.0566 28.3709 25.0657 28.3004 25.0621C28.2347 25.0589 28.1388 25.0472 27.9957 25.0228C27.8543 24.9988 27.6892 24.9664 27.4859 24.9264L27.1964 26.3982ZM22.3545 27.7695C22.5485 28.1056 22.7343 28.431 22.913 28.659C23.08 28.8721 23.4213 29.2376 23.9643 29.1911L23.8363 27.6966C23.9544 27.6864 24.0519 27.7242 24.1055 27.7585C24.1424 27.7821 24.1386 27.7911 24.0935 27.7337C24.0514 27.6799 23.996 27.5979 23.9193 27.4724C23.8435 27.3484 23.7582 27.2008 23.6536 27.0195L22.3545 27.7695ZM23.8639 27.0175C23.7968 27.2136 23.7424 27.3728 23.6925 27.5073C23.6421 27.6434 23.6042 27.7323 23.5742 27.7908C23.542 27.8537 23.5384 27.8419 23.5737 27.809C23.6246 27.7615 23.7173 27.7067 23.8363 27.6966L23.9643 29.1911C24.5145 29.144 24.7848 28.7173 24.9089 28.4754C25.0405 28.2187 25.1593 27.8651 25.2832 27.5027L23.8639 27.0175ZM22.1898 24.4842C22.0078 24.169 21.8762 23.9408 21.7775 23.7534L20.4504 24.4527C20.5658 24.6715 20.7142 24.9284 20.8907 25.2342L22.1898 24.4842ZM14.6945 20.1231C14.3032 19.3334 14.0829 18.4435 14.0829 17.5H12.5829C12.5829 18.6797 12.8589 19.797 13.3504 20.7891L14.6945 20.1231ZM19.9996 23.4167C19.6045 23.4167 19.2193 23.3781 18.8471 23.3046L18.5568 24.7763C19.0241 24.8685 19.5066 24.9167 19.9996 24.9167V23.4167ZM18.8471 23.3046C17.0234 22.9449 15.4982 21.745 14.6945 20.1231L13.3504 20.7891C14.3566 22.8197 16.266 24.3244 18.5568 24.7763L18.8471 23.3046ZM19.2488 24.561L19.3011 24.4916L18.1028 23.5894L18.0505 23.6589L19.2488 24.561ZM20.9895 23.3343C20.6681 23.3884 20.3374 23.4167 19.9996 23.4167V24.9167C20.4212 24.9167 20.8351 24.8814 21.2384 24.8136L20.9895 23.3343ZM21.864 24.1031V24.074H20.364V24.1031H21.864ZM25.9162 17.5C25.9162 18.4785 25.6793 19.3995 25.2603 20.2108L26.5931 20.8991C27.1194 19.88 27.4162 18.7236 27.4162 17.5H25.9162ZM25.2603 20.2108C24.421 21.8359 22.8515 23.021 20.9895 23.3343L21.2384 24.8136C23.5777 24.4199 25.5425 22.9331 26.5931 20.8991L25.2603 20.2108ZM27.428 21.4599C27.0561 20.8157 26.7897 20.3384 26.4417 20.0097L25.4117 21.1002C25.56 21.2402 25.7029 21.4718 26.129 22.2099L27.428 21.4599ZM14.2977 21.1605C14.2921 21.1668 14.2913 21.1661 14.3005 21.1595C14.3102 21.1527 14.3274 21.142 14.3557 21.128L13.6892 19.7842C13.5345 19.8609 13.3384 19.9796 13.1705 20.1708L14.2977 21.1605Z" fill="#EA5E9C"/>
</g>
<defs>
<clipPath id="clip0_265_33647">
<rect width="20" height="20" fill="white" transform="translate(10 10)"/>
</clipPath>
</defs>
</svg>
