<svg width="34" height="34" viewBox="0 0 34 34" fill="none" xmlns="http://www.w3.org/2000/svg">
<g id="Hicon / Outline / Send 3" clip-path="url(#clip0_265_33533)">
<g id="Send 3">
<g id="Vector">
<path fill-rule="evenodd" clip-rule="evenodd" d="M26.2955 20.6745C29.0428 18.9482 29.1809 14.9942 26.5607 13.0805L19.0378 7.58594C17.4024 6.39153 15.2167 6.25499 13.4414 7.21952C9.89695 9.14525 9.75665 14.2286 13.2455 16.2929C13.3418 16.3499 13.3369 16.4909 13.2368 16.5411C9.61249 18.357 9.39782 23.4378 12.7993 25.6061C14.503 26.6921 16.693 26.7084 18.4076 25.6309L26.2955 20.6745ZM25.676 14.2918C27.44 15.5802 27.3471 18.2422 25.4974 19.4044L17.6096 24.3608C16.3897 25.1274 14.8244 25.1181 13.6056 24.3412C11.1695 22.7883 11.3437 19.1674 13.9087 17.8822C15.0702 17.3002 15.1274 15.6635 14.0093 15.002C11.5402 13.541 11.619 9.91673 14.1575 8.53755C15.4275 7.84753 16.9897 7.94754 18.1531 8.79725L25.676 14.2918Z" fill="#452667"/>
<path fill-rule="evenodd" clip-rule="evenodd" d="M26.2955 20.6745C29.0428 18.9482 29.1809 14.9942 26.5607 13.0805L19.0378 7.58594C17.4024 6.39153 15.2167 6.25499 13.4414 7.21952C9.89695 9.14525 9.75665 14.2286 13.2455 16.2929C13.3418 16.3499 13.3369 16.4909 13.2368 16.5411C9.61249 18.357 9.39782 23.4378 12.7993 25.6061C14.503 26.6921 16.693 26.7084 18.4076 25.6309L26.2955 20.6745ZM25.676 14.2918C27.44 15.5802 27.3471 18.2422 25.4974 19.4044L17.6096 24.3608C16.3897 25.1274 14.8244 25.1181 13.6056 24.3412C11.1695 22.7883 11.3437 19.1674 13.9087 17.8822C15.0702 17.3002 15.1274 15.6635 14.0093 15.002C11.5402 13.541 11.619 9.91673 14.1575 8.53755C15.4275 7.84753 16.9897 7.94754 18.1531 8.79725L25.676 14.2918Z" fill="#EA5E9C"/>
</g>
</g>
</g>
<defs>
<clipPath id="clip0_265_33533">
<rect width="24" height="24" fill="white" transform="translate(17.5918 0.0397949) rotate(47)"/>
</clipPath>
</defs>
</svg>
