<svg width="18" height="18" viewBox="0 0 18 18" fill="none" xmlns="http://www.w3.org/2000/svg">
<path fill-rule="evenodd" clip-rule="evenodd" d="M9.00025 6.1875C7.44695 6.1875 6.18775 7.4467 6.18775 9C6.18775 10.5533 7.44695 11.8125 9.00025 11.8125C10.5535 11.8125 11.8127 10.5533 11.8127 9C11.8127 7.4467 10.5535 6.1875 9.00025 6.1875ZM7.31275 9C7.31275 8.06802 8.06827 7.3125 9.00025 7.3125C9.93223 7.3125 10.6877 8.06802 10.6877 9C10.6877 9.93198 9.93223 10.6875 9.00025 10.6875C8.06827 10.6875 7.31275 9.93198 7.31275 9Z" fill="white"/>
<path fill-rule="evenodd" clip-rule="evenodd" d="M9.00025 2.4375C7.39453 2.4375 5.94268 3.23174 4.76404 4.19679C3.57897 5.1671 2.60996 6.35899 1.95881 7.26601L1.9051 7.34069C1.51311 7.88538 1.19043 8.33374 1.19043 9C1.19043 9.66626 1.51311 10.1146 1.9051 10.6593L1.95881 10.734C2.60996 11.641 3.57897 12.8329 4.76404 13.8032C5.94268 14.7683 7.39453 15.5625 9.00025 15.5625C10.606 15.5625 12.0578 14.7683 13.2365 13.8032C14.4215 12.8329 15.3905 11.641 16.0417 10.734L16.0954 10.6593C16.4874 10.1146 16.8101 9.66626 16.8101 9C16.8101 8.33374 16.4874 7.88538 16.0954 7.3407L16.0417 7.26601C15.3905 6.35899 14.4215 5.1671 13.2365 4.19679C12.0578 3.23174 10.606 2.4375 9.00025 2.4375ZM2.87269 7.92209C3.49464 7.05574 4.39786 5.9506 5.47675 5.06723C6.56207 4.17859 7.76592 3.5625 9.00025 3.5625C10.2346 3.5625 11.4384 4.17859 12.5238 5.06723C13.6026 5.9506 14.5059 7.05574 15.1278 7.92209C15.5958 8.57395 15.6851 8.73111 15.6851 9C15.6851 9.26889 15.5958 9.42605 15.1278 10.0779C14.5059 10.9443 13.6026 12.0494 12.5238 12.9328C11.4384 13.8214 10.2346 14.4375 9.00025 14.4375C7.76592 14.4375 6.56207 13.8214 5.47675 12.9328C4.39786 12.0494 3.49464 10.9443 2.87269 10.0779C2.40472 9.42605 2.31543 9.26889 2.31543 9C2.31543 8.73111 2.40472 8.57395 2.87269 7.92209Z" fill="white"/>
</svg>
