<svg width="21" height="20" viewBox="0 0 21 20" fill="none" xmlns="http://www.w3.org/2000/svg">
<path d="M2.4365 9.49923C2.53493 9.5733 2.64698 9.62725 2.76626 9.65799C2.88554 9.68874 3.00971 9.69568 3.13168 9.67841C3.25364 9.66114 3.37101 9.62001 3.47706 9.55736C3.58312 9.49471 3.6758 9.41177 3.74979 9.31329C4.09907 8.84741 4.55205 8.46926 5.07283 8.20881C5.59362 7.94836 6.1679 7.81277 6.75018 7.81277C7.33246 7.81277 7.90674 7.94836 8.42752 8.20881C8.9483 8.46926 9.40128 8.84741 9.75057 9.31329C9.89987 9.51208 10.122 9.64343 10.3682 9.67844C10.6143 9.71346 10.8643 9.64928 11.0631 9.50001C11.1334 9.44665 11.1959 9.38381 11.249 9.31329C11.5983 8.84741 12.0513 8.46926 12.5721 8.20881C13.0928 7.94836 13.6671 7.81277 14.2494 7.81277C14.8317 7.81277 15.406 7.94836 15.9267 8.20881C16.4475 8.46926 16.9005 8.84741 17.2498 9.31329C17.323 9.4135 17.4155 9.49817 17.5217 9.56239C17.6279 9.6266 17.7459 9.66908 17.8686 9.68735C17.9914 9.70563 18.1166 9.69934 18.2369 9.66885C18.3573 9.63836 18.4703 9.58428 18.5696 9.50974C18.6689 9.4352 18.7523 9.34169 18.8152 9.23464C18.878 9.12759 18.919 9.00912 18.9356 8.88612C18.9523 8.76312 18.9444 8.63802 18.9124 8.5181C18.8804 8.39817 18.8248 8.2858 18.749 8.18751C18.2275 7.48924 17.5508 6.92171 16.7724 6.5297C17.1131 6.06382 17.318 5.51272 17.3646 4.93748C17.4112 4.36225 17.2975 3.78535 17.0363 3.27075C16.7751 2.75614 16.3764 2.32393 15.8846 2.02202C15.3927 1.7201 14.8269 1.56029 14.2498 1.56029C13.6727 1.56029 13.1068 1.7201 12.615 2.02202C12.1231 2.32393 11.7245 2.75614 11.4633 3.27075C11.202 3.78535 11.0884 4.36225 11.135 4.93748C11.1816 5.51272 11.3865 6.06382 11.7271 6.5297C11.2823 6.7528 10.8694 7.03475 10.4998 7.36798C10.1302 7.03448 9.71736 6.75226 9.27244 6.52891C9.61306 6.06304 9.81802 5.51194 9.86459 4.9367C9.91117 4.36147 9.79754 3.78457 9.53631 3.26997C9.27507 2.75536 8.87644 2.32315 8.38459 2.02123C7.89275 1.71932 7.3269 1.55951 6.74979 1.55951C6.17267 1.55951 5.60683 1.71932 5.11498 2.02123C4.62313 2.32315 4.2245 2.75536 3.96327 3.26997C3.70203 3.78457 3.5884 4.36147 3.63498 4.9367C3.68155 5.51194 3.88651 6.06304 4.22713 6.52891C3.44874 6.92093 2.77209 7.48846 2.25057 8.18673C2.10122 8.38545 2.0369 8.63535 2.07177 8.88148C2.10664 9.12761 2.23783 9.34981 2.4365 9.49923ZM14.2498 3.43751C14.497 3.43751 14.7387 3.51082 14.9442 3.64817C15.1498 3.78552 15.31 3.98075 15.4046 4.20915C15.4992 4.43756 15.524 4.68889 15.4758 4.93137C15.4275 5.17385 15.3085 5.39658 15.1337 5.57139C14.9589 5.74621 14.7361 5.86526 14.4936 5.91349C14.2512 5.96172 13.9998 5.93697 13.7714 5.84236C13.543 5.74775 13.3478 5.58753 13.2104 5.38197C13.0731 5.17641 12.9998 4.93473 12.9998 4.68751C12.9998 4.35599 13.1315 4.03805 13.3659 3.80362C13.6003 3.5692 13.9183 3.43751 14.2498 3.43751ZM6.74979 3.43751C6.99701 3.43751 7.23869 3.51082 7.44425 3.64817C7.64981 3.78552 7.81003 3.98075 7.90464 4.20915C7.99925 4.43756 8.024 4.68889 7.97577 4.93137C7.92754 5.17385 7.80849 5.39658 7.63367 5.57139C7.45885 5.74621 7.23612 5.86526 6.99365 5.91349C6.75117 5.96172 6.49984 5.93697 6.27143 5.84236C6.04302 5.74775 5.8478 5.58753 5.71045 5.38197C5.5731 5.17641 5.49979 4.93473 5.49979 4.68751C5.49979 4.35599 5.63148 4.03805 5.8659 3.80362C6.10032 3.5692 6.41827 3.43751 6.74979 3.43751ZM16.7724 15.2789C17.1131 14.813 17.318 14.2619 17.3646 13.6867C17.4112 13.1115 17.2975 12.5346 17.0363 12.02C16.7751 11.5054 16.3764 11.0731 15.8846 10.7712C15.3927 10.4693 14.8269 10.3095 14.2498 10.3095C13.6727 10.3095 13.1068 10.4693 12.615 10.7712C12.1231 11.0731 11.7245 11.5054 11.4633 12.02C11.202 12.5346 11.0884 13.1115 11.135 13.6867C11.1816 14.2619 11.3865 14.813 11.7271 15.2789C11.2824 15.5023 10.8696 15.7842 10.4998 16.1172C10.1299 15.7842 9.71716 15.5023 9.27244 15.2789C9.61306 14.813 9.81802 14.2619 9.86459 13.6867C9.91117 13.1115 9.79754 12.5346 9.53631 12.02C9.27507 11.5054 8.87644 11.0731 8.38459 10.7712C7.89275 10.4693 7.3269 10.3095 6.74979 10.3095C6.17267 10.3095 5.60683 10.4693 5.11498 10.7712C4.62313 11.0731 4.2245 11.5054 3.96327 12.02C3.70203 12.5346 3.5884 13.1115 3.63498 13.6867C3.68155 14.2619 3.88651 14.813 4.22713 15.2789C3.44874 15.6709 2.77209 16.2385 2.25057 16.9367C2.10118 17.1355 2.03688 17.3855 2.07182 17.6318C2.10677 17.878 2.23809 18.1002 2.4369 18.2496C2.6357 18.399 2.88572 18.4633 3.13193 18.4284C3.37815 18.3934 3.60039 18.2621 3.74979 18.0633C4.09907 17.5974 4.55205 17.2193 5.07283 16.9588C5.59362 16.6984 6.1679 16.5628 6.75018 16.5628C7.33246 16.5628 7.90674 16.6984 8.42752 16.9588C8.9483 17.2193 9.40128 17.5974 9.75057 18.0633C9.89987 18.2621 10.122 18.3934 10.3682 18.4284C10.6143 18.4635 10.8643 18.3993 11.0631 18.25C11.1334 18.1966 11.1959 18.1338 11.249 18.0633C11.5983 17.5974 12.0513 17.2193 12.5721 16.9588C13.0928 16.6984 13.6671 16.5628 14.2494 16.5628C14.8317 16.5628 15.406 16.6984 15.9267 16.9588C16.4475 17.2193 16.9005 17.5974 17.2498 18.0633C17.323 18.1635 17.4155 18.2482 17.5217 18.3124C17.6279 18.3766 17.7459 18.4191 17.8686 18.4374C17.9914 18.4556 18.1166 18.4493 18.2369 18.4188C18.3573 18.3884 18.4703 18.3343 18.5696 18.2597C18.6689 18.1852 18.7523 18.0917 18.8152 17.9846C18.878 17.8776 18.919 17.7591 18.9356 17.6361C18.9523 17.5131 18.9444 17.388 18.9124 17.2681C18.8804 17.1482 18.8248 17.0358 18.749 16.9375C18.2278 16.2388 17.5511 15.6709 16.7724 15.2789ZM6.74979 12.1875C6.99701 12.1875 7.23869 12.2608 7.44425 12.3982C7.64981 12.5355 7.81003 12.7307 7.90464 12.9592C7.99925 13.1876 8.024 13.4389 7.97577 13.6814C7.92754 13.9238 7.80849 14.1466 7.63367 14.3214C7.45885 14.4962 7.23612 14.6153 6.99365 14.6635C6.75117 14.7117 6.49984 14.687 6.27143 14.5924C6.04302 14.4977 5.8478 14.3375 5.71045 14.132C5.5731 13.9264 5.49979 13.6847 5.49979 13.4375C5.49979 13.106 5.63148 12.788 5.8659 12.5536C6.10032 12.3192 6.41827 12.1875 6.74979 12.1875ZM14.2498 12.1875C14.497 12.1875 14.7387 12.2608 14.9442 12.3982C15.1498 12.5355 15.31 12.7307 15.4046 12.9592C15.4992 13.1876 15.524 13.4389 15.4758 13.6814C15.4275 13.9238 15.3085 14.1466 15.1337 14.3214C14.9589 14.4962 14.7361 14.6153 14.4936 14.6635C14.2512 14.7117 13.9998 14.687 13.7714 14.5924C13.543 14.4977 13.3478 14.3375 13.2104 14.132C13.0731 13.9264 12.9998 13.6847 12.9998 13.4375C12.9998 13.106 13.1315 12.788 13.3659 12.5536C13.6003 12.3192 13.9183 12.1875 14.2498 12.1875Z" fill="#C0AFFF"/>
</svg>
