<svg width="26" height="25" viewBox="0 0 26 25" fill="none" xmlns="http://www.w3.org/2000/svg">
<path d="M25.3936 12.6099C25.3936 5.78372 19.8833 0.273437 13.0571 0.273437C6.23094 0.273437 0.720657 5.78372 0.720657 12.6099C0.720657 19.4361 6.23094 24.9463 13.0571 24.9463C19.8833 24.9463 25.3936 19.4361 25.3936 12.6099ZM12.2347 17.6267L12.2347 10.0604L10.0964 11.9519C9.6029 12.3632 8.94496 12.2809 8.53374 11.8697C8.36925 11.623 8.28701 11.3762 8.28701 11.1295C8.28701 10.8005 8.4515 10.4716 8.69823 10.3071L12.6459 6.85288C12.7281 6.77063 12.8104 6.77063 12.8926 6.68839C12.9749 6.68839 12.9749 6.68839 13.0571 6.60615C13.1393 6.60615 13.1393 6.60615 13.2216 6.60615L13.3038 6.60615C13.3861 6.60615 13.3861 6.60615 13.4683 6.60615L13.5506 6.60615C13.6328 6.60615 13.6328 6.60615 13.7151 6.68839C13.7151 6.68839 13.7973 6.68839 13.7973 6.77063L13.8795 6.85288C13.8795 6.85288 13.8795 6.85288 13.9618 6.93512L17.416 10.4716C17.8272 10.8828 17.8272 11.623 17.416 12.0342C17.0048 12.4454 16.2646 12.4454 15.8534 12.0342L14.2908 10.3893L14.2908 17.709C14.2908 18.2847 13.7973 18.8604 13.1393 18.8604C12.7281 18.6959 12.2347 18.2024 12.2347 17.6267Z" fill="white"/>
</svg>
