<svg width="25" height="24" viewBox="0 0 25 24" fill="none" xmlns="http://www.w3.org/2000/svg">
<g clip-path="url(#clip0_265_30087)">
<path d="M5.5 8.25C5.08579 8.25 4.75 8.58579 4.75 9C4.75 9.41421 5.08579 9.75 5.5 9.75H9.5C9.91421 9.75 10.25 9.41421 10.25 9C10.25 8.58579 9.91421 8.25 9.5 8.25H5.5Z" fill="white"/>
<path fill-rule="evenodd" clip-rule="evenodd" d="M12.8451 3.32061C11.9807 3.24999 10.9053 3.25 9.53356 3.25H9.46644C8.09472 3.25 7.01929 3.24999 6.15494 3.32061C5.2748 3.39252 4.54769 3.54138 3.88955 3.87671C2.80762 4.42798 1.92798 5.30762 1.37671 6.38955C1.04138 7.04769 0.892522 7.7748 0.820612 8.65494C0.749992 9.51929 0.749995 10.5947 0.75 11.9664V12.0336C0.749995 13.4053 0.749992 14.4807 0.820612 15.3451C0.892522 16.2252 1.04138 16.9523 1.37671 17.6104C1.92798 18.6924 2.80762 19.572 3.88955 20.1233C4.54769 20.4586 5.27479 20.6075 6.15494 20.6794C7.01927 20.75 8.09469 20.75 9.46637 20.75H9.53358C10.9053 20.75 11.9807 20.75 12.8451 20.6794C13.7252 20.6075 14.4523 20.4586 15.1104 20.1233C16.1924 19.572 17.072 18.6924 17.6233 17.6104C17.6733 17.5123 17.7192 17.4125 17.7613 17.3109C18.928 17.8206 19.8834 18.2344 20.659 18.4448C21.4839 18.6686 22.2874 18.7147 23.0057 18.2446C23.7241 17.7746 24.0036 17.0198 24.1288 16.1743C24.2501 15.3556 24.25 14.2757 24.25 12.9502V11.0498C24.25 9.72425 24.2501 8.64436 24.1288 7.82567C24.0036 6.98019 23.7241 6.2254 23.0057 5.75537C22.2874 5.28534 21.4839 5.33144 20.659 5.55522C19.8834 5.76561 18.928 6.17938 17.7613 6.68909C17.7192 6.58749 17.6733 6.48774 17.6233 6.38955C17.072 5.30762 16.1924 4.42798 15.1104 3.87671C14.4523 3.54138 13.7252 3.39252 12.8451 3.32061ZM18.1987 15.8651L18.1285 15.8344C18.2501 14.8803 18.2501 13.6833 18.25 12.1052V11.8949C18.2501 10.3168 18.2501 9.11972 18.1285 8.16559L18.1987 8.13494C19.4854 7.57271 20.373 7.18703 21.0517 7.0029C21.717 6.82242 21.9978 6.88845 22.1844 7.01054C22.371 7.13264 22.544 7.36358 22.645 8.04545C22.748 8.74113 22.75 9.70889 22.75 11.113V12.887C22.75 14.2911 22.748 15.2589 22.645 15.9546C22.544 16.6364 22.371 16.8674 22.1844 16.9895C21.9978 17.1116 21.717 17.1776 21.0517 16.9971C20.373 16.813 19.4854 16.4273 18.1987 15.8651ZM4.57054 5.21322C4.98197 5.00359 5.4897 4.87996 6.27708 4.81563C7.07322 4.75058 8.08749 4.75 9.5 4.75C10.9125 4.75 11.9268 4.75058 12.7229 4.81563C13.5103 4.87996 14.018 5.00359 14.4295 5.21322C15.2291 5.62068 15.8793 6.27085 16.2868 7.07054C16.4033 7.29921 16.4929 7.55724 16.5606 7.87444C16.7459 8.74266 16.75 9.93753 16.75 12C16.75 14.0621 16.7459 15.2569 16.5607 16.1251C16.493 16.4425 16.4033 16.7007 16.2868 16.9295C15.8793 17.7291 15.2291 18.3793 14.4295 18.7868C14.018 18.9964 13.5103 19.12 12.7229 19.1844C11.9268 19.2494 10.9125 19.25 9.5 19.25C8.08749 19.25 7.07322 19.2494 6.27708 19.1844C5.4897 19.12 4.98197 18.9964 4.57054 18.7868C3.77085 18.3793 3.12068 17.7291 2.71322 16.9295C2.50359 16.518 2.37996 16.0103 2.31563 15.2229C2.25058 14.4268 2.25 13.4125 2.25 12C2.25 10.5875 2.25058 9.57322 2.31563 8.77708C2.37996 7.9897 2.50359 7.48197 2.71322 7.07054C3.12068 6.27085 3.77085 5.62068 4.57054 5.21322Z" fill="white"/>
</g>
<defs>
<clipPath id="clip0_265_30087">
<rect width="24" height="24" fill="white" transform="translate(0.5)"/>
</clipPath>
</defs>
</svg>
